<svg width="1080" height="143" viewBox="0 0 1080 143" fill="none" xmlns="http://www.w3.org/2000/svg">
<path fill-rule="evenodd" clip-rule="evenodd" d="M976.642 58.0098C976.642 46.9587 985.528 38 996.494 38C1007.46 38 1016.35 46.9584 1016.35 58.0098C1016.35 59.614 1015.06 60.9144 1013.46 60.9144C1011.87 60.9144 1010.58 59.614 1010.58 58.0098C1010.58 50.1673 1004.27 43.8093 996.494 43.8093C988.711 43.8093 982.406 50.167 982.406 58.0098C982.406 59.614 981.115 60.9144 979.524 60.9144C977.933 60.9144 976.642 59.614 976.642 58.0098ZM962.584 60.4458C964.167 60.2803 965.584 61.4396 965.748 63.0352L968.81 92.7829C968.814 92.8146 968.816 92.8463 968.819 92.8781C969.051 96.1989 971.375 98.1907 973.537 98.1907H1019.47C1021.63 98.1907 1023.95 96.1989 1024.18 92.878C1024.19 92.8464 1024.19 92.8148 1024.19 92.7832L1027.25 63.0355C1027.42 61.4398 1028.83 60.2804 1030.42 60.4458C1032 60.6112 1033.15 62.0389 1032.98 63.6345L1029.93 93.338C1029.51 99.0466 1025.23 104 1019.47 104H973.537C967.775 104 963.497 99.0467 963.073 93.3381L960.016 63.6348C959.851 62.0392 961.001 60.6114 962.584 60.4458Z" fill="white"/>
<path d="M47 92.12C47 90.5294 48.2864 89.24 49.8732 89.24H112.127C113.714 89.24 115 90.5294 115 92.12C115 93.7106 113.714 95 112.127 95H49.8732C48.2864 95 47 93.7106 47 92.12Z" fill="white"/>
<path d="M47 71C47 69.4094 48.2864 68.12 49.8732 68.12H112.127C113.714 68.12 115 69.4094 115 71C115 72.5906 113.714 73.88 112.127 73.88H49.8732C48.2864 73.88 47 72.5906 47 71Z" fill="white"/>
<path d="M47 49.88C47 48.2894 48.2864 47 49.8732 47H112.127C113.714 47 115 48.2894 115 49.88C115 51.4706 113.714 52.76 112.127 52.76H49.8732C48.2864 52.76 47 51.4706 47 49.88Z" fill="white"/>
<path fill-rule="evenodd" clip-rule="evenodd" d="M596.537 119.994C596.125 119.994 595.919 119.743 595.919 119.228V112.031L589.469 119.228C588.976 119.78 588.508 120.038 588.046 119.994H586.724C586.493 119.994 586.244 119.931 585.982 119.812C585.713 119.686 585.451 119.491 585.189 119.221L577.959 112.025V119.221C577.959 119.736 577.753 119.987 577.342 119.987H575.214C574.803 119.987 574.597 119.736 574.597 119.221V101.337C574.597 100.841 574.803 100.596 575.214 100.596H577.18C577.672 100.596 578.159 100.841 578.639 101.337L589.369 113.394L600.835 101.337C601.296 100.841 601.833 100.596 602.457 100.596H604.103C604.515 100.596 604.721 100.841 604.721 101.337V119.221C604.721 119.736 604.515 119.987 604.103 119.987H596.537V119.994Z" fill="white"/>
<path fill-rule="evenodd" clip-rule="evenodd" d="M607.304 119.994C606.911 119.994 606.711 119.743 606.711 119.234V117.432C606.711 116.923 606.911 116.672 607.304 116.672H620.142L609.362 110.38C608.782 110.041 608.314 109.676 607.946 109.312C607.578 108.948 607.291 108.552 607.085 108.144C606.879 107.736 606.748 107.303 606.68 106.851C606.605 106.399 606.574 105.909 606.574 105.394C606.574 104.772 606.667 104.163 606.848 103.592C607.035 103.008 607.316 102.499 607.684 102.047C608.058 101.607 608.52 101.249 609.082 100.998C609.637 100.741 610.285 100.609 611.015 100.609H627.858C628.27 100.609 628.476 100.854 628.476 101.35V103.165C628.476 103.679 628.27 103.931 627.858 103.931H615.457L626.212 110.216C626.804 110.556 627.285 110.914 627.64 111.284C628.002 111.654 628.283 112.038 628.488 112.446C628.694 112.854 628.825 113.287 628.9 113.758C628.969 114.223 629 114.713 629 115.221C629 115.849 628.906 116.452 628.726 117.03C628.538 117.601 628.258 118.116 627.89 118.562C627.515 119.008 627.054 119.366 626.505 119.617C625.956 119.868 625.313 120 624.583 120H607.304V119.994Z" fill="white"/>
<path fill-rule="evenodd" clip-rule="evenodd" d="M451.73 119.994C451.331 119.994 451.137 119.749 451.137 119.24V117.432C451.137 116.923 451.331 116.672 451.73 116.672H464.568L453.788 110.38C453.208 110.041 452.74 109.676 452.372 109.312C452.004 108.948 451.717 108.552 451.512 108.144C451.306 107.736 451.175 107.303 451.1 106.851C451.031 106.399 451 105.909 451 105.4C451 104.772 451.094 104.163 451.274 103.592C451.462 103.008 451.742 102.499 452.11 102.047C452.485 101.607 452.946 101.249 453.508 100.998C454.063 100.741 454.712 100.609 455.442 100.609H472.285C472.696 100.609 472.902 100.854 472.902 101.35V103.165C472.902 103.679 472.696 103.931 472.285 103.931H459.877L470.632 110.216C471.224 110.556 471.704 110.914 472.06 111.284C472.422 111.654 472.703 112.038 472.908 112.446C473.114 112.854 473.245 113.287 473.32 113.758C473.389 114.223 473.42 114.713 473.42 115.221C473.42 115.849 473.326 116.452 473.146 117.03C472.958 117.601 472.678 118.116 472.31 118.562C471.935 119.008 471.474 119.366 470.925 119.617C470.376 119.868 469.733 120 469.003 120H451.73V119.994Z" fill="white"/>
<path fill-rule="evenodd" clip-rule="evenodd" d="M483.195 119.994C482.796 119.994 482.596 119.743 482.596 119.234V112.458L474.381 101.57C474.25 101.394 474.175 101.23 474.175 101.055C474.175 100.904 474.218 100.785 474.312 100.716C474.406 100.646 474.512 100.603 474.63 100.603H483.856C484.268 100.603 484.605 100.791 484.88 101.168L490.968 109.469L497.306 101.136C497.474 100.929 497.624 100.785 497.768 100.709C497.899 100.634 498.086 100.596 498.31 100.596H499.639C499.795 100.596 499.907 100.634 499.97 100.722C500.032 100.81 500.076 100.91 500.076 101.023C500.076 101.174 500.038 101.3 499.957 101.394L491.679 112.289V119.228C491.679 119.736 491.473 119.987 491.062 119.987H483.195V119.994Z" fill="white"/>
<path fill-rule="evenodd" clip-rule="evenodd" d="M501.486 119.994C501.086 119.994 500.887 119.743 500.887 119.24V117.432C500.887 116.923 501.086 116.672 501.486 116.672H514.317L503.544 110.38C502.964 110.041 502.49 109.676 502.122 109.312C501.754 108.935 501.473 108.552 501.267 108.144C501.061 107.736 500.93 107.303 500.855 106.851C500.787 106.399 500.756 105.909 500.756 105.4C500.756 104.772 500.849 104.163 501.03 103.592C501.217 103.008 501.498 102.499 501.866 102.047C502.24 101.607 502.702 101.249 503.263 100.998C503.819 100.741 504.467 100.609 505.197 100.609H522.04C522.452 100.609 522.658 100.854 522.658 101.35V103.165C522.658 103.679 522.452 103.931 522.04 103.931H509.639L520.393 110.216C520.986 110.556 521.466 110.914 521.822 111.284C522.184 111.654 522.458 112.038 522.664 112.446C522.87 112.854 523.007 113.287 523.076 113.758C523.151 114.223 523.182 114.713 523.182 115.221C523.182 115.849 523.088 116.452 522.901 117.03C522.72 117.601 522.44 118.116 522.071 118.562C521.697 119.008 521.236 119.366 520.687 119.617C520.138 119.868 519.489 120 518.759 120H501.486V119.994Z" fill="white"/>
<path fill-rule="evenodd" clip-rule="evenodd" d="M531.622 119.994C531.329 119.994 531.185 119.874 531.185 119.623V103.924H524.504C524.211 103.924 524.074 103.824 524.074 103.61V100.967C524.074 100.722 524.211 100.596 524.504 100.596H546.956C547.243 100.596 547.386 100.716 547.386 100.967V103.61C547.386 103.824 547.243 103.924 546.956 103.924H540.25V119.623C540.25 119.868 540.112 119.994 539.838 119.994H531.622Z" fill="white"/>
<path fill-rule="evenodd" clip-rule="evenodd" d="M555.976 119.994C554.891 119.994 553.886 119.755 552.982 119.272C552.065 118.788 551.272 118.116 550.605 117.256C549.931 116.396 549.407 115.366 549.039 114.185C548.665 112.998 548.471 111.705 548.471 110.304C548.471 108.904 548.652 107.629 549.008 106.449C549.37 105.262 549.881 104.238 550.53 103.359C551.185 102.486 551.977 101.808 552.901 101.331C553.818 100.841 554.847 100.603 555.976 100.603H571.964C572.376 100.603 572.582 100.847 572.582 101.343V103.158C572.582 103.673 572.376 103.924 571.964 103.924H561.322C560.823 103.924 560.399 103.993 560.056 104.125C559.719 104.257 559.438 104.496 559.226 104.841C559.008 105.18 558.852 105.639 558.764 106.204C558.671 106.775 558.627 107.497 558.627 108.377V111.485C558.627 112.452 558.683 113.268 558.789 113.934C558.895 114.593 559.064 115.127 559.282 115.529C559.501 115.925 559.781 116.22 560.118 116.396C560.449 116.578 560.854 116.666 561.328 116.666H572.039C572.451 116.666 572.651 116.917 572.651 117.425V119.228C572.651 119.736 572.451 119.987 572.039 119.987H555.976V119.994ZM560.867 111.096C560.455 111.096 560.249 110.851 560.249 110.355V108.508C560.249 108.012 560.455 107.767 560.867 107.767H571.808C572.208 107.767 572.407 107.937 572.407 108.276V110.581C572.407 110.92 572.208 111.096 571.808 111.096H560.867Z" fill="white"/>
<path fill-rule="evenodd" clip-rule="evenodd" d="M477.356 93.3873C476.346 93.3873 476.015 92.8473 476.015 91.9493V35.0567H452.672C451.661 35.0567 451.156 34.6799 451.156 33.9201V24.3438C451.162 23.4458 451.667 23 452.672 23H531.079C532.09 23 532.595 23.4458 532.595 24.3438V33.9264C532.595 34.6862 532.09 35.063 531.079 35.063H507.661L507.63 93.3936H477.363L477.356 93.3873ZM507.618 93.3873V87.6164H536.326V25.6625C536.326 23.8791 537.056 23 538.447 23H602.694C606.692 23 610.304 23.898 613.523 25.6814C616.748 27.471 619.506 29.9263 621.795 33.0473C624.078 36.1745 625.856 39.8857 627.104 44.1746C628.357 48.4698 628.981 53.1292 628.981 58.1466C628.981 63.1639 628.333 67.9175 627.023 72.219C625.719 76.5142 623.891 80.2254 621.552 83.3463C619.206 86.4736 616.424 88.91 613.199 90.6683C609.974 92.4203 606.468 93.3873 602.687 93.3873C602.687 93.3873 507.611 93.4062 507.611 93.3873H507.618ZM593.43 51.17C593.43 48.0051 593.268 45.3865 592.95 43.3206C592.631 41.2546 592.101 39.5968 591.353 38.366C590.61 37.1227 589.643 36.2624 588.477 35.7789C587.298 35.2953 585.863 35.0567 584.16 35.0567H568.016V81.2364H584.16C585.763 81.2364 587.142 80.9099 588.321 80.2568C589.487 79.6037 590.461 78.5362 591.24 77.0543C592.014 75.5723 592.569 73.6382 592.912 71.2708C593.255 68.8909 593.43 65.9458 593.43 62.4418V51.17Z" fill="white"/>
</svg>
