<svg width="3840" height="143" viewBox="0 0 3840 143" fill="none" xmlns="http://www.w3.org/2000/svg">
<rect x="3002" y="53" width="195" height="48" rx="21" fill="#CD0101"/>
<path d="M1101.69 66.2798V63.5455H1120.78V66.2798H1112.78V89H1109.69V66.2798H1101.69ZM1130.38 89.3977C1128.54 89.3977 1126.95 88.9917 1125.62 88.1797C1124.29 87.3594 1123.27 86.2159 1122.55 84.7493C1121.83 83.2744 1121.48 81.5592 1121.48 79.6037C1121.48 77.6482 1121.83 75.9247 1122.55 74.4332C1123.27 72.9335 1124.27 71.7652 1125.55 70.9283C1126.85 70.0831 1128.35 69.6605 1130.08 69.6605C1131.07 69.6605 1132.05 69.8262 1133.02 70.1577C1133.99 70.4891 1134.88 71.0277 1135.67 71.7734C1136.47 72.5109 1137.1 73.4886 1137.57 74.7067C1138.05 75.9247 1138.28 77.4245 1138.28 79.206V80.4489H1123.57V77.9134H1135.3C1135.3 76.8362 1135.08 75.875 1134.65 75.0298C1134.23 74.1847 1133.62 73.5176 1132.84 73.0288C1132.06 72.5399 1131.14 72.2955 1130.08 72.2955C1128.91 72.2955 1127.9 72.5855 1127.05 73.1655C1126.2 73.7372 1125.55 74.483 1125.09 75.4027C1124.64 76.3224 1124.41 77.3085 1124.41 78.3608V80.0511C1124.41 81.4929 1124.66 82.7151 1125.16 83.7177C1125.66 84.712 1126.36 85.4702 1127.26 85.9922C1128.15 86.5059 1129.19 86.7628 1130.38 86.7628C1131.15 86.7628 1131.84 86.6551 1132.46 86.4396C1133.09 86.2159 1133.64 85.8845 1134.09 85.4453C1134.55 84.9979 1134.9 84.4427 1135.15 83.7798L1137.98 84.5753C1137.68 85.5365 1137.18 86.3816 1136.48 87.1108C1135.77 87.8317 1134.9 88.3951 1133.87 88.8011C1132.83 89.1989 1131.67 89.3977 1130.38 89.3977ZM1145.68 63.5455V89H1142.74V63.5455H1145.68ZM1159.05 89.3977C1157.21 89.3977 1155.63 88.9917 1154.29 88.1797C1152.97 87.3594 1151.94 86.2159 1151.22 84.7493C1150.51 83.2744 1150.15 81.5592 1150.15 79.6037C1150.15 77.6482 1150.51 75.9247 1151.22 74.4332C1151.94 72.9335 1152.95 71.7652 1154.23 70.9283C1155.52 70.0831 1157.03 69.6605 1158.75 69.6605C1159.75 69.6605 1160.73 69.8262 1161.7 70.1577C1162.67 70.4891 1163.55 71.0277 1164.35 71.7734C1165.14 72.5109 1165.78 73.4886 1166.25 74.7067C1166.72 75.9247 1166.96 77.4245 1166.96 79.206V80.4489H1152.24V77.9134H1163.98C1163.98 76.8362 1163.76 75.875 1163.33 75.0298C1162.91 74.1847 1162.3 73.5176 1161.51 73.0288C1160.74 72.5399 1159.82 72.2955 1158.75 72.2955C1157.59 72.2955 1156.58 72.5855 1155.72 73.1655C1154.88 73.7372 1154.23 74.483 1153.77 75.4027C1153.32 76.3224 1153.09 77.3085 1153.09 78.3608V80.0511C1153.09 81.4929 1153.34 82.7151 1153.83 83.7177C1154.34 84.712 1155.04 85.4702 1155.93 85.9922C1156.83 86.5059 1157.87 86.7628 1159.05 86.7628C1159.82 86.7628 1160.52 86.6551 1161.14 86.4396C1161.77 86.2159 1162.31 85.8845 1162.77 85.4453C1163.23 84.9979 1163.58 84.4427 1163.83 83.7798L1166.66 84.5753C1166.36 85.5365 1165.86 86.3816 1165.16 87.1108C1164.45 87.8317 1163.58 88.3951 1162.55 88.8011C1161.51 89.1989 1160.35 89.3977 1159.05 89.3977ZM1186.45 69.9091L1179.39 89H1176.41L1169.35 69.9091H1172.53L1177.8 85.1222H1178L1183.27 69.9091H1186.45ZM1190.32 89V69.9091H1193.25V89H1190.32ZM1191.81 66.7273C1191.24 66.7273 1190.75 66.5326 1190.33 66.1431C1189.93 65.7537 1189.72 65.2855 1189.72 64.7386C1189.72 64.1918 1189.93 63.7236 1190.33 63.3342C1190.75 62.9447 1191.24 62.75 1191.81 62.75C1192.38 62.75 1192.87 62.9447 1193.28 63.3342C1193.69 63.7236 1193.9 64.1918 1193.9 64.7386C1193.9 65.2855 1193.69 65.7537 1193.28 66.1431C1192.87 66.5326 1192.38 66.7273 1191.81 66.7273ZM1212.15 74.1847L1209.51 74.9304C1209.35 74.4912 1209.1 74.0645 1208.78 73.6502C1208.47 73.2276 1208.04 72.8796 1207.49 72.6062C1206.94 72.3327 1206.24 72.196 1205.39 72.196C1204.22 72.196 1203.25 72.4653 1202.47 73.0039C1201.7 73.5342 1201.31 74.2095 1201.31 75.0298C1201.31 75.759 1201.58 76.3349 1202.11 76.7575C1202.64 77.18 1203.47 77.5322 1204.59 77.8139L1207.43 78.5099C1209.13 78.9242 1210.41 79.5581 1211.24 80.4116C1212.08 81.2567 1212.5 82.3464 1212.5 83.6804C1212.5 84.7741 1212.18 85.7519 1211.55 86.6136C1210.93 87.4754 1210.06 88.1548 1208.94 88.652C1207.82 89.1491 1206.52 89.3977 1205.04 89.3977C1203.09 89.3977 1201.48 88.9751 1200.21 88.13C1198.93 87.2848 1198.12 86.0502 1197.78 84.4261L1200.57 83.7301C1200.83 84.7576 1201.33 85.5282 1202.07 86.0419C1202.82 86.5556 1203.79 86.8125 1204.99 86.8125C1206.36 86.8125 1207.44 86.5225 1208.25 85.9425C1209.06 85.3542 1209.47 84.6499 1209.47 83.8295C1209.47 83.1667 1209.23 82.6115 1208.77 82.1641C1208.31 81.7083 1207.59 81.3686 1206.63 81.1449L1203.45 80.3991C1201.7 79.9848 1200.42 79.3427 1199.6 78.4727C1198.78 77.5943 1198.38 76.4964 1198.38 75.179C1198.38 74.1018 1198.68 73.1489 1199.29 72.3203C1199.9 71.4917 1200.73 70.8413 1201.78 70.369C1202.84 69.8967 1204.05 69.6605 1205.39 69.6605C1207.28 69.6605 1208.76 70.0748 1209.84 70.9034C1210.92 71.732 1211.69 72.8258 1212.15 74.1847ZM1224.67 89.3977C1222.95 89.3977 1221.43 88.9876 1220.13 88.1673C1218.84 87.3469 1217.83 86.1993 1217.1 84.7244C1216.38 83.2495 1216.02 81.526 1216.02 79.554C1216.02 77.5653 1216.38 75.8294 1217.1 74.3462C1217.83 72.863 1218.84 71.7113 1220.13 70.891C1221.43 70.0707 1222.95 69.6605 1224.67 69.6605C1226.39 69.6605 1227.9 70.0707 1229.19 70.891C1230.49 71.7113 1231.5 72.863 1232.23 74.3462C1232.95 75.8294 1233.32 77.5653 1233.32 79.554C1233.32 81.526 1232.95 83.2495 1232.23 84.7244C1231.5 86.1993 1230.49 87.3469 1229.19 88.1673C1227.9 88.9876 1226.39 89.3977 1224.67 89.3977ZM1224.67 86.7628C1225.98 86.7628 1227.06 86.4272 1227.9 85.756C1228.75 85.0849 1229.37 84.2024 1229.78 83.1087C1230.18 82.0149 1230.39 80.83 1230.39 79.554C1230.39 78.2779 1230.18 77.0889 1229.78 75.9869C1229.37 74.8848 1228.75 73.9941 1227.9 73.3146C1227.06 72.6352 1225.98 72.2955 1224.67 72.2955C1223.36 72.2955 1222.28 72.6352 1221.44 73.3146C1220.59 73.9941 1219.97 74.8848 1219.56 75.9869C1219.15 77.0889 1218.95 78.2779 1218.95 79.554C1218.95 80.83 1219.15 82.0149 1219.56 83.1087C1219.97 84.2024 1220.59 85.0849 1221.44 85.756C1222.28 86.4272 1223.36 86.7628 1224.67 86.7628ZM1237.8 89V69.9091H1240.63V72.7926H1240.83C1241.18 71.848 1241.81 71.0816 1242.72 70.4933C1243.63 69.9049 1244.66 69.6108 1245.8 69.6108C1246.02 69.6108 1246.29 69.6149 1246.61 69.6232C1246.93 69.6315 1247.18 69.6439 1247.34 69.6605V72.6435C1247.24 72.6186 1247.02 72.5813 1246.66 72.5316C1246.31 72.4736 1245.94 72.4446 1245.55 72.4446C1244.62 72.4446 1243.8 72.6393 1243.07 73.0288C1242.35 73.4099 1241.77 73.9402 1241.35 74.6197C1240.94 75.2908 1240.73 76.0573 1240.73 76.919V89H1237.8ZM1258.24 89.3977C1256.4 89.3977 1254.82 88.9917 1253.48 88.1797C1252.16 87.3594 1251.13 86.2159 1250.41 84.7493C1249.7 83.2744 1249.34 81.5592 1249.34 79.6037C1249.34 77.6482 1249.7 75.9247 1250.41 74.4332C1251.13 72.9335 1252.14 71.7652 1253.42 70.9283C1254.71 70.0831 1256.22 69.6605 1257.94 69.6605C1258.94 69.6605 1259.92 69.8262 1260.89 70.1577C1261.86 70.4891 1262.74 71.0277 1263.54 71.7734C1264.33 72.5109 1264.97 73.4886 1265.44 74.7067C1265.91 75.9247 1266.15 77.4245 1266.15 79.206V80.4489H1251.43V77.9134H1263.16C1263.16 76.8362 1262.95 75.875 1262.52 75.0298C1262.1 74.1847 1261.49 73.5176 1260.7 73.0288C1259.92 72.5399 1259 72.2955 1257.94 72.2955C1256.78 72.2955 1255.77 72.5855 1254.91 73.1655C1254.07 73.7372 1253.42 74.483 1252.96 75.4027C1252.5 76.3224 1252.28 77.3085 1252.28 78.3608V80.0511C1252.28 81.4929 1252.53 82.7151 1253.02 83.7177C1253.53 84.712 1254.23 85.4702 1255.12 85.9922C1256.02 86.5059 1257.06 86.7628 1258.24 86.7628C1259.01 86.7628 1259.71 86.6551 1260.33 86.4396C1260.96 86.2159 1261.5 85.8845 1261.96 85.4453C1262.41 84.9979 1262.77 84.4427 1263.02 83.7798L1265.85 84.5753C1265.55 85.5365 1265.05 86.3816 1264.35 87.1108C1263.64 87.8317 1262.77 88.3951 1261.74 88.8011C1260.7 89.1989 1259.54 89.3977 1258.24 89.3977ZM1284.13 74.1847L1281.5 74.9304C1281.33 74.4912 1281.09 74.0645 1280.76 73.6502C1280.45 73.2276 1280.02 72.8796 1279.47 72.6062C1278.92 72.3327 1278.22 72.196 1277.37 72.196C1276.2 72.196 1275.23 72.4653 1274.45 73.0039C1273.68 73.5342 1273.29 74.2095 1273.29 75.0298C1273.29 75.759 1273.56 76.3349 1274.09 76.7575C1274.62 77.18 1275.45 77.5322 1276.58 77.8139L1279.41 78.5099C1281.12 78.9242 1282.39 79.5581 1283.22 80.4116C1284.06 81.2567 1284.48 82.3464 1284.48 83.6804C1284.48 84.7741 1284.17 85.7519 1283.54 86.6136C1282.91 87.4754 1282.04 88.1548 1280.93 88.652C1279.81 89.1491 1278.51 89.3977 1277.02 89.3977C1275.08 89.3977 1273.46 88.9751 1272.19 88.13C1270.91 87.2848 1270.1 86.0502 1269.76 84.4261L1272.55 83.7301C1272.81 84.7576 1273.31 85.5282 1274.05 86.0419C1274.8 86.5556 1275.77 86.8125 1276.97 86.8125C1278.34 86.8125 1279.43 86.5225 1280.23 85.9425C1281.04 85.3542 1281.45 84.6499 1281.45 83.8295C1281.45 83.1667 1281.22 82.6115 1280.75 82.1641C1280.29 81.7083 1279.57 81.3686 1278.61 81.1449L1275.43 80.3991C1273.68 79.9848 1272.4 79.3427 1271.58 78.4727C1270.77 77.5943 1270.36 76.4964 1270.36 75.179C1270.36 74.1018 1270.66 73.1489 1271.27 72.3203C1271.88 71.4917 1272.71 70.8413 1273.77 70.369C1274.83 69.8967 1276.03 69.6605 1277.37 69.6605C1279.26 69.6605 1280.74 70.0748 1281.82 70.9034C1282.91 71.732 1283.68 72.8258 1284.13 74.1847ZM1338.51 63.5455H1342.19L1350.84 84.6747H1351.14L1359.79 63.5455H1363.47V89H1360.59V69.6605H1360.34L1352.38 89H1349.6L1341.64 69.6605H1341.4V89H1338.51V63.5455ZM1377.01 89.3977C1375.28 89.3977 1373.77 88.9876 1372.47 88.1673C1371.18 87.3469 1370.17 86.1993 1369.44 84.7244C1368.72 83.2495 1368.36 81.526 1368.36 79.554C1368.36 77.5653 1368.72 75.8294 1369.44 74.3462C1370.17 72.863 1371.18 71.7113 1372.47 70.891C1373.77 70.0707 1375.28 69.6605 1377.01 69.6605C1378.73 69.6605 1380.24 70.0707 1381.53 70.891C1382.83 71.7113 1383.84 72.863 1384.56 74.3462C1385.29 75.8294 1385.66 77.5653 1385.66 79.554C1385.66 81.526 1385.29 83.2495 1384.56 84.7244C1383.84 86.1993 1382.83 87.3469 1381.53 88.1673C1380.24 88.9876 1378.73 89.3977 1377.01 89.3977ZM1377.01 86.7628C1378.32 86.7628 1379.39 86.4272 1380.24 85.756C1381.08 85.0849 1381.71 84.2024 1382.12 83.1087C1382.52 82.0149 1382.73 80.83 1382.73 79.554C1382.73 78.2779 1382.52 77.0889 1382.12 75.9869C1381.71 74.8848 1381.08 73.9941 1380.24 73.3146C1379.39 72.6352 1378.32 72.2955 1377.01 72.2955C1375.7 72.2955 1374.62 72.6352 1373.78 73.3146C1372.93 73.9941 1372.31 74.8848 1371.9 75.9869C1371.49 77.0889 1371.29 78.2779 1371.29 79.554C1371.29 80.83 1371.49 82.0149 1371.9 83.1087C1372.31 84.2024 1372.93 85.0849 1373.78 85.756C1374.62 86.4272 1375.7 86.7628 1377.01 86.7628ZM1393.07 77.5156V89H1390.14V69.9091H1392.97V72.892H1393.22C1393.67 71.9226 1394.35 71.1437 1395.26 70.5554C1396.17 69.9588 1397.34 69.6605 1398.79 69.6605C1400.08 69.6605 1401.21 69.9257 1402.18 70.456C1403.15 70.978 1403.9 71.7734 1404.44 72.8423C1404.98 73.9029 1405.25 75.2453 1405.25 76.8693V89H1402.32V77.0682C1402.32 75.5684 1401.93 74.4001 1401.15 73.5632C1400.37 72.718 1399.3 72.2955 1397.94 72.2955C1397 72.2955 1396.17 72.4985 1395.43 72.9045C1394.7 73.3105 1394.13 73.9029 1393.7 74.6818C1393.28 75.4607 1393.07 76.4053 1393.07 77.5156ZM1410.61 89V69.9091H1413.54V89H1410.61ZM1412.1 66.7273C1411.53 66.7273 1411.04 66.5326 1410.62 66.1431C1410.22 65.7537 1410.01 65.2855 1410.01 64.7386C1410.01 64.1918 1410.22 63.7236 1410.62 63.3342C1411.04 62.9447 1411.53 62.75 1412.1 62.75C1412.67 62.75 1413.16 62.9447 1413.57 63.3342C1413.98 63.7236 1414.19 64.1918 1414.19 64.7386C1414.19 65.2855 1413.98 65.7537 1413.57 66.1431C1413.16 66.5326 1412.67 66.7273 1412.1 66.7273ZM1427.22 69.9091V72.3949H1417.32V69.9091H1427.22ZM1420.21 65.3352H1423.14V83.5312C1423.14 84.3598 1423.26 84.9813 1423.5 85.3956C1423.75 85.8016 1424.06 86.075 1424.45 86.2159C1424.84 86.3485 1425.25 86.4148 1425.68 86.4148C1426 86.4148 1426.26 86.3982 1426.47 86.3651C1426.68 86.3236 1426.84 86.2905 1426.97 86.2656L1427.57 88.9006C1427.37 88.9751 1427.09 89.0497 1426.73 89.1243C1426.38 89.2071 1425.93 89.2486 1425.38 89.2486C1424.55 89.2486 1423.74 89.0704 1422.94 88.7141C1422.15 88.3578 1421.5 87.8151 1420.98 87.0859C1420.46 86.3568 1420.21 85.437 1420.21 84.3267V65.3352ZM1439.18 89.3977C1437.46 89.3977 1435.94 88.9876 1434.64 88.1673C1433.35 87.3469 1432.34 86.1993 1431.61 84.7244C1430.89 83.2495 1430.53 81.526 1430.53 79.554C1430.53 77.5653 1430.89 75.8294 1431.61 74.3462C1432.34 72.863 1433.35 71.7113 1434.64 70.891C1435.94 70.0707 1437.46 69.6605 1439.18 69.6605C1440.9 69.6605 1442.41 70.0707 1443.7 70.891C1445.01 71.7113 1446.02 72.863 1446.74 74.3462C1447.47 75.8294 1447.83 77.5653 1447.83 79.554C1447.83 81.526 1447.47 83.2495 1446.74 84.7244C1446.02 86.1993 1445.01 87.3469 1443.7 88.1673C1442.41 88.9876 1440.9 89.3977 1439.18 89.3977ZM1439.18 86.7628C1440.49 86.7628 1441.57 86.4272 1442.41 85.756C1443.26 85.0849 1443.88 84.2024 1444.29 83.1087C1444.69 82.0149 1444.9 80.83 1444.9 79.554C1444.9 78.2779 1444.69 77.0889 1444.29 75.9869C1443.88 74.8848 1443.26 73.9941 1442.41 73.3146C1441.57 72.6352 1440.49 72.2955 1439.18 72.2955C1437.87 72.2955 1436.79 72.6352 1435.95 73.3146C1435.1 73.9941 1434.48 74.8848 1434.07 75.9869C1433.67 77.0889 1433.46 78.2779 1433.46 79.554C1433.46 80.83 1433.67 82.0149 1434.07 83.1087C1434.48 84.2024 1435.1 85.0849 1435.95 85.756C1436.79 86.4272 1437.87 86.7628 1439.18 86.7628ZM1452.31 89V69.9091H1455.14V72.7926H1455.34C1455.69 71.848 1456.32 71.0816 1457.23 70.4933C1458.14 69.9049 1459.17 69.6108 1460.31 69.6108C1460.53 69.6108 1460.8 69.6149 1461.12 69.6232C1461.44 69.6315 1461.69 69.6439 1461.85 69.6605V72.6435C1461.75 72.6186 1461.53 72.5813 1461.17 72.5316C1460.82 72.4736 1460.45 72.4446 1460.06 72.4446C1459.14 72.4446 1458.31 72.6393 1457.58 73.0288C1456.86 73.4099 1456.29 73.9402 1455.86 74.6197C1455.45 75.2908 1455.24 76.0573 1455.24 76.919V89H1452.31ZM1472.75 89.3977C1470.91 89.3977 1469.33 88.9917 1467.99 88.1797C1466.67 87.3594 1465.64 86.2159 1464.92 84.7493C1464.21 83.2744 1463.86 81.5592 1463.86 79.6037C1463.86 77.6482 1464.21 75.9247 1464.92 74.4332C1465.64 72.9335 1466.65 71.7652 1467.93 70.9283C1469.22 70.0831 1470.73 69.6605 1472.46 69.6605C1473.45 69.6605 1474.43 69.8262 1475.4 70.1577C1476.37 70.4891 1477.25 71.0277 1478.05 71.7734C1478.84 72.5109 1479.48 73.4886 1479.95 74.7067C1480.42 75.9247 1480.66 77.4245 1480.66 79.206V80.4489H1465.94V77.9134H1477.68C1477.68 76.8362 1477.46 75.875 1477.03 75.0298C1476.61 74.1847 1476 73.5176 1475.22 73.0288C1474.44 72.5399 1473.52 72.2955 1472.46 72.2955C1471.29 72.2955 1470.28 72.5855 1469.42 73.1655C1468.58 73.7372 1467.93 74.483 1467.47 75.4027C1467.02 76.3224 1466.79 77.3085 1466.79 78.3608V80.0511C1466.79 81.4929 1467.04 82.7151 1467.53 83.7177C1468.04 84.712 1468.74 85.4702 1469.63 85.9922C1470.53 86.5059 1471.57 86.7628 1472.75 86.7628C1473.52 86.7628 1474.22 86.6551 1474.84 86.4396C1475.47 86.2159 1476.01 85.8845 1476.47 85.4453C1476.93 84.9979 1477.28 84.4427 1477.53 83.7798L1480.36 84.5753C1480.06 85.5365 1479.56 86.3816 1478.86 87.1108C1478.15 87.8317 1477.28 88.3951 1476.25 88.8011C1475.21 89.1989 1474.05 89.3977 1472.75 89.3977ZM1498.64 74.1847L1496.01 74.9304C1495.84 74.4912 1495.6 74.0645 1495.28 73.6502C1494.96 73.2276 1494.53 72.8796 1493.98 72.6062C1493.44 72.3327 1492.74 72.196 1491.88 72.196C1490.71 72.196 1489.74 72.4653 1488.96 73.0039C1488.19 73.5342 1487.81 74.2095 1487.81 75.0298C1487.81 75.759 1488.07 76.3349 1488.6 76.7575C1489.13 77.18 1489.96 77.5322 1491.09 77.8139L1493.92 78.5099C1495.63 78.9242 1496.9 79.5581 1497.74 80.4116C1498.57 81.2567 1498.99 82.3464 1498.99 83.6804C1498.99 84.7741 1498.68 85.7519 1498.05 86.6136C1497.43 87.4754 1496.56 88.1548 1495.44 88.652C1494.32 89.1491 1493.02 89.3977 1491.53 89.3977C1489.59 89.3977 1487.98 88.9751 1486.7 88.13C1485.42 87.2848 1484.62 86.0502 1484.28 84.4261L1487.06 83.7301C1487.33 84.7576 1487.83 85.5282 1488.56 86.0419C1489.31 86.5556 1490.28 86.8125 1491.48 86.8125C1492.85 86.8125 1493.94 86.5225 1494.74 85.9425C1495.55 85.3542 1495.96 84.6499 1495.96 83.8295C1495.96 83.1667 1495.73 82.6115 1495.26 82.1641C1494.8 81.7083 1494.09 81.3686 1493.13 81.1449L1489.94 80.3991C1488.2 79.9848 1486.91 79.3427 1486.09 78.4727C1485.28 77.5943 1484.87 76.4964 1484.87 75.179C1484.87 74.1018 1485.18 73.1489 1485.78 72.3203C1486.39 71.4917 1487.23 70.8413 1488.28 70.369C1489.34 69.8967 1490.54 69.6605 1491.88 69.6605C1493.77 69.6605 1495.25 70.0748 1496.33 70.9034C1497.42 71.732 1498.19 72.8258 1498.64 74.1847ZM1553.02 89V63.5455H1568.39V66.2798H1556.11V74.8807H1567.59V77.6151H1556.11V86.2656H1568.58V89H1553.02ZM1587.07 74.1847L1584.43 74.9304C1584.27 74.4912 1584.02 74.0645 1583.7 73.6502C1583.38 73.2276 1582.95 72.8796 1582.41 72.6062C1581.86 72.3327 1581.16 72.196 1580.31 72.196C1579.14 72.196 1578.16 72.4653 1577.38 73.0039C1576.61 73.5342 1576.23 74.2095 1576.23 75.0298C1576.23 75.759 1576.49 76.3349 1577.02 76.7575C1577.55 77.18 1578.38 77.5322 1579.51 77.8139L1582.34 78.5099C1584.05 78.9242 1585.32 79.5581 1586.16 80.4116C1587 81.2567 1587.41 82.3464 1587.41 83.6804C1587.41 84.7741 1587.1 85.7519 1586.47 86.6136C1585.85 87.4754 1584.98 88.1548 1583.86 88.652C1582.74 89.1491 1581.44 89.3977 1579.96 89.3977C1578.01 89.3977 1576.4 88.9751 1575.12 88.13C1573.85 87.2848 1573.04 86.0502 1572.7 84.4261L1575.48 83.7301C1575.75 84.7576 1576.25 85.5282 1576.99 86.0419C1577.73 86.5556 1578.71 86.8125 1579.91 86.8125C1581.27 86.8125 1582.36 86.5225 1583.16 85.9425C1583.98 85.3542 1584.38 84.6499 1584.38 83.8295C1584.38 83.1667 1584.15 82.6115 1583.69 82.1641C1583.22 81.7083 1582.51 81.3686 1581.55 81.1449L1578.37 80.3991C1576.62 79.9848 1575.33 79.3427 1574.51 78.4727C1573.7 77.5943 1573.3 76.4964 1573.3 75.179C1573.3 74.1018 1573.6 73.1489 1574.2 72.3203C1574.82 71.4917 1575.65 70.8413 1576.7 70.369C1577.76 69.8967 1578.96 69.6605 1580.31 69.6605C1582.19 69.6605 1583.68 70.0748 1584.75 70.9034C1585.84 71.732 1586.61 72.8258 1587.07 74.1847ZM1599.59 89.3977C1597.8 89.3977 1596.25 88.9751 1594.96 88.13C1593.67 87.2848 1592.68 86.1206 1591.98 84.6374C1591.28 83.1542 1590.94 81.4598 1590.94 79.554C1590.94 77.6151 1591.29 75.904 1592 74.4208C1592.73 72.9293 1593.73 71.7652 1595.01 70.9283C1596.3 70.0831 1597.81 69.6605 1599.54 69.6605C1600.88 69.6605 1602.09 69.9091 1603.17 70.4062C1604.24 70.9034 1605.13 71.5994 1605.81 72.4943C1606.5 73.3892 1606.93 74.4332 1607.09 75.6264H1604.16C1603.94 74.7564 1603.44 73.9858 1602.67 73.3146C1601.91 72.6352 1600.88 72.2955 1599.59 72.2955C1598.44 72.2955 1597.44 72.5937 1596.58 73.1903C1595.72 73.7786 1595.06 74.6114 1594.58 75.6886C1594.1 76.7575 1593.87 78.0128 1593.87 79.4545C1593.87 80.9295 1594.1 82.2138 1594.56 83.3075C1595.04 84.4013 1595.7 85.2506 1596.55 85.8555C1597.41 86.4603 1598.43 86.7628 1599.59 86.7628C1600.35 86.7628 1601.04 86.6302 1601.66 86.3651C1602.28 86.0999 1602.81 85.7188 1603.24 85.2216C1603.67 84.7244 1603.98 84.1278 1604.16 83.4318H1607.09C1606.93 84.5587 1606.52 85.5737 1605.86 86.4769C1605.22 87.3718 1604.36 88.0844 1603.29 88.6147C1602.23 89.1367 1600.99 89.3977 1599.59 89.3977ZM1617 89.4474C1615.79 89.4474 1614.69 89.2196 1613.71 88.7638C1612.72 88.2998 1611.94 87.6328 1611.36 86.7628C1610.78 85.8845 1610.49 84.8239 1610.49 83.581C1610.49 82.4872 1610.7 81.6006 1611.13 80.9212C1611.56 80.2334 1612.14 79.6948 1612.86 79.3054C1613.58 78.916 1614.38 78.6259 1615.25 78.4354C1616.12 78.2365 1617.01 78.0791 1617.89 77.9631C1619.05 77.8139 1619.99 77.7021 1620.72 77.6275C1621.44 77.5446 1621.97 77.4079 1622.31 77.2173C1622.65 77.0268 1622.82 76.6953 1622.82 76.223V76.1236C1622.82 74.8973 1622.48 73.9444 1621.81 73.2649C1621.15 72.5855 1620.14 72.2457 1618.79 72.2457C1617.39 72.2457 1616.29 72.5523 1615.49 73.1655C1614.7 73.7786 1614.14 74.4332 1613.82 75.1293L1611.03 74.1349C1611.53 72.9749 1612.19 72.0717 1613.02 71.4254C1613.86 70.7708 1614.77 70.3151 1615.76 70.0582C1616.75 69.7931 1617.73 69.6605 1618.69 69.6605C1619.3 69.6605 1620.01 69.7351 1620.8 69.8842C1621.61 70.0251 1622.38 70.3192 1623.13 70.7667C1623.88 71.2141 1624.51 71.8894 1625 72.7926C1625.5 73.6958 1625.75 74.9055 1625.75 76.4219V89H1622.82V86.4148H1622.67C1622.47 86.8291 1622.14 87.2724 1621.67 87.7447C1621.21 88.217 1620.59 88.6188 1619.82 88.9503C1619.05 89.2817 1618.11 89.4474 1617 89.4474ZM1617.45 86.8125C1618.61 86.8125 1619.58 86.5846 1620.38 86.1289C1621.18 85.6732 1621.79 85.0849 1622.19 84.364C1622.61 83.6431 1622.82 82.8849 1622.82 82.0895V79.4048C1622.69 79.554 1622.42 79.6907 1622 79.815C1621.58 79.931 1621.1 80.0346 1620.55 80.1257C1620.01 80.2086 1619.49 80.2831 1618.98 80.3494C1618.47 80.4074 1618.06 80.4571 1617.74 80.4986C1616.98 80.598 1616.27 80.7596 1615.61 80.9833C1614.95 81.1987 1614.42 81.526 1614.02 81.9652C1613.62 82.3961 1613.42 82.9844 1613.42 83.7301C1613.42 84.7493 1613.8 85.5199 1614.55 86.0419C1615.31 86.5556 1616.28 86.8125 1617.45 86.8125ZM1631.1 96.1591V69.9091H1633.94V72.9418H1634.28C1634.5 72.6103 1634.8 72.1877 1635.18 71.674C1635.57 71.152 1636.12 70.688 1636.84 70.282C1637.57 69.8677 1638.56 69.6605 1639.8 69.6605C1641.41 69.6605 1642.83 70.0624 1644.05 70.8661C1645.28 71.6699 1646.24 72.8092 1646.92 74.2841C1647.61 75.759 1647.96 77.4991 1647.96 79.5043C1647.96 81.526 1647.61 83.2785 1646.92 84.7617C1646.24 86.2366 1645.28 87.3801 1644.07 88.1921C1642.85 88.9959 1641.44 89.3977 1639.85 89.3977C1638.63 89.3977 1637.64 89.1947 1636.91 88.7887C1636.17 88.3744 1635.6 87.9062 1635.2 87.3842C1634.81 86.8539 1634.5 86.4148 1634.28 86.0668H1634.04V96.1591H1631.1ZM1633.99 79.4545C1633.99 80.8963 1634.2 82.1682 1634.62 83.2702C1635.04 84.364 1635.66 85.2216 1636.47 85.843C1637.28 86.4562 1638.28 86.7628 1639.45 86.7628C1640.68 86.7628 1641.7 86.4396 1642.52 85.7933C1643.35 85.1387 1643.97 84.2604 1644.39 83.1584C1644.81 82.0481 1645.02 80.8134 1645.02 79.4545C1645.02 78.1122 1644.82 76.9025 1644.4 75.8253C1644 74.7398 1643.38 73.8822 1642.55 73.2525C1641.73 72.6145 1640.7 72.2955 1639.45 72.2955C1638.26 72.2955 1637.26 72.5979 1636.45 73.2028C1635.64 73.7994 1635.02 74.6362 1634.61 75.7134C1634.19 76.7823 1633.99 78.0294 1633.99 79.4545ZM1658.05 89.4474C1656.84 89.4474 1655.74 89.2196 1654.75 88.7638C1653.77 88.2998 1652.99 87.6328 1652.41 86.7628C1651.83 85.8845 1651.54 84.8239 1651.54 83.581C1651.54 82.4872 1651.75 81.6006 1652.18 80.9212C1652.61 80.2334 1653.19 79.6948 1653.91 79.3054C1654.63 78.916 1655.43 78.6259 1656.3 78.4354C1657.17 78.2365 1658.06 78.0791 1658.94 77.9631C1660.1 77.8139 1661.04 77.7021 1661.76 77.6275C1662.49 77.5446 1663.02 77.4079 1663.36 77.2173C1663.7 77.0268 1663.87 76.6953 1663.87 76.223V76.1236C1663.87 74.8973 1663.53 73.9444 1662.86 73.2649C1662.2 72.5855 1661.19 72.2457 1659.84 72.2457C1658.44 72.2457 1657.34 72.5523 1656.54 73.1655C1655.75 73.7786 1655.19 74.4332 1654.87 75.1293L1652.08 74.1349C1652.58 72.9749 1653.24 72.0717 1654.07 71.4254C1654.91 70.7708 1655.82 70.3151 1656.81 70.0582C1657.8 69.7931 1658.78 69.6605 1659.74 69.6605C1660.35 69.6605 1661.06 69.7351 1661.85 69.8842C1662.66 70.0251 1663.43 70.3192 1664.18 70.7667C1664.93 71.2141 1665.56 71.8894 1666.05 72.7926C1666.55 73.6958 1666.8 74.9055 1666.8 76.4219V89H1663.87V86.4148H1663.72C1663.52 86.8291 1663.19 87.2724 1662.72 87.7447C1662.26 88.217 1661.64 88.6188 1660.87 88.9503C1660.1 89.2817 1659.16 89.4474 1658.05 89.4474ZM1658.5 86.8125C1659.66 86.8125 1660.63 86.5846 1661.43 86.1289C1662.23 85.6732 1662.84 85.0849 1663.24 84.364C1663.66 83.6431 1663.87 82.8849 1663.87 82.0895V79.4048C1663.74 79.554 1663.47 79.6907 1663.05 79.815C1662.63 79.931 1662.15 80.0346 1661.6 80.1257C1661.06 80.2086 1660.54 80.2831 1660.02 80.3494C1659.52 80.4074 1659.11 80.4571 1658.79 80.4986C1658.03 80.598 1657.32 80.7596 1656.66 80.9833C1656 81.1987 1655.47 81.526 1655.07 81.9652C1654.67 82.3961 1654.47 82.9844 1654.47 83.7301C1654.47 84.7493 1654.85 85.5199 1655.6 86.0419C1656.36 86.5556 1657.33 86.8125 1658.5 86.8125ZM1672.15 89V69.9091H1674.99V72.7926H1675.19C1675.53 71.848 1676.16 71.0816 1677.07 70.4933C1677.99 69.9049 1679.01 69.6108 1680.16 69.6108C1680.37 69.6108 1680.64 69.6149 1680.96 69.6232C1681.29 69.6315 1681.53 69.6439 1681.7 69.6605V72.6435C1681.6 72.6186 1681.37 72.5813 1681.01 72.5316C1680.67 72.4736 1680.3 72.4446 1679.91 72.4446C1678.98 72.4446 1678.15 72.6393 1677.42 73.0288C1676.7 73.4099 1676.13 73.9402 1675.71 74.6197C1675.29 75.2908 1675.09 76.0573 1675.09 76.919V89H1672.15ZM1690.79 89.4474C1689.58 89.4474 1688.49 89.2196 1687.5 88.7638C1686.51 88.2998 1685.73 87.6328 1685.15 86.7628C1684.57 85.8845 1684.28 84.8239 1684.28 83.581C1684.28 82.4872 1684.5 81.6006 1684.93 80.9212C1685.36 80.2334 1685.93 79.6948 1686.65 79.3054C1687.37 78.916 1688.17 78.6259 1689.04 78.4354C1689.92 78.2365 1690.8 78.0791 1691.69 77.9631C1692.85 77.8139 1693.79 77.7021 1694.51 77.6275C1695.24 77.5446 1695.77 77.4079 1696.1 77.2173C1696.44 77.0268 1696.61 76.6953 1696.61 76.223V76.1236C1696.61 74.8973 1696.27 73.9444 1695.6 73.2649C1694.94 72.5855 1693.93 72.2457 1692.58 72.2457C1691.18 72.2457 1690.08 72.5523 1689.29 73.1655C1688.49 73.7786 1687.93 74.4332 1687.61 75.1293L1684.83 74.1349C1685.32 72.9749 1685.99 72.0717 1686.82 71.4254C1687.65 70.7708 1688.56 70.3151 1689.55 70.0582C1690.54 69.7931 1691.52 69.6605 1692.48 69.6605C1693.1 69.6605 1693.8 69.7351 1694.6 69.8842C1695.4 70.0251 1696.17 70.3192 1696.92 70.7667C1697.67 71.2141 1698.3 71.8894 1698.8 72.7926C1699.29 73.6958 1699.54 74.9055 1699.54 76.4219V89H1696.61V86.4148H1696.46C1696.26 86.8291 1695.93 87.2724 1695.47 87.7447C1695 88.217 1694.38 88.6188 1693.61 88.9503C1692.84 89.2817 1691.9 89.4474 1690.79 89.4474ZM1691.24 86.8125C1692.4 86.8125 1693.38 86.5846 1694.17 86.1289C1694.98 85.6732 1695.58 85.0849 1695.99 84.364C1696.4 83.6431 1696.61 82.8849 1696.61 82.0895V79.4048C1696.49 79.554 1696.21 79.6907 1695.79 79.815C1695.37 79.931 1694.89 80.0346 1694.35 80.1257C1693.81 80.2086 1693.28 80.2831 1692.77 80.3494C1692.26 80.4074 1691.85 80.4571 1691.54 80.4986C1690.78 80.598 1690.06 80.7596 1689.4 80.9833C1688.75 81.1987 1688.22 81.526 1687.81 81.9652C1687.41 82.3961 1687.21 82.9844 1687.21 83.7301C1687.21 84.7493 1687.59 85.5199 1688.34 86.0419C1689.11 86.5556 1690.07 86.8125 1691.24 86.8125ZM1713.2 69.9091V72.3949H1703.31V69.9091H1713.2ZM1706.19 65.3352H1709.12V83.5312C1709.12 84.3598 1709.24 84.9813 1709.48 85.3956C1709.73 85.8016 1710.05 86.075 1710.43 86.2159C1710.82 86.3485 1711.23 86.4148 1711.66 86.4148C1711.98 86.4148 1712.25 86.3982 1712.45 86.3651C1712.66 86.3236 1712.83 86.2905 1712.95 86.2656L1713.55 88.9006C1713.35 88.9751 1713.07 89.0497 1712.71 89.1243C1712.36 89.2071 1711.91 89.2486 1711.36 89.2486C1710.53 89.2486 1709.72 89.0704 1708.92 88.7141C1708.14 88.3578 1707.48 87.8151 1706.96 87.0859C1706.45 86.3568 1706.19 85.437 1706.19 84.3267V65.3352ZM1725.41 89.3977C1723.57 89.3977 1721.98 88.9917 1720.65 88.1797C1719.32 87.3594 1718.3 86.2159 1717.58 84.7493C1716.87 83.2744 1716.51 81.5592 1716.51 79.6037C1716.51 77.6482 1716.87 75.9247 1717.58 74.4332C1718.3 72.9335 1719.3 71.7652 1720.59 70.9283C1721.88 70.0831 1723.39 69.6605 1725.11 69.6605C1726.11 69.6605 1727.09 69.8262 1728.06 70.1577C1729.03 70.4891 1729.91 71.0277 1730.71 71.7734C1731.5 72.5109 1732.13 73.4886 1732.61 74.7067C1733.08 75.9247 1733.32 77.4245 1733.32 79.206V80.4489H1718.6V77.9134H1730.33C1730.33 76.8362 1730.12 75.875 1729.69 75.0298C1729.26 74.1847 1728.66 73.5176 1727.87 73.0288C1727.09 72.5399 1726.17 72.2955 1725.11 72.2955C1723.94 72.2955 1722.93 72.5855 1722.08 73.1655C1721.23 73.7372 1720.58 74.483 1720.13 75.4027C1719.67 76.3224 1719.44 77.3085 1719.44 78.3608V80.0511C1719.44 81.4929 1719.69 82.7151 1720.19 83.7177C1720.7 84.712 1721.4 85.4702 1722.29 85.9922C1723.19 86.5059 1724.23 86.7628 1725.41 86.7628C1726.18 86.7628 1726.88 86.6551 1727.5 86.4396C1728.13 86.2159 1728.67 85.8845 1729.13 85.4453C1729.58 84.9979 1729.93 84.4427 1730.18 83.7798L1733.02 84.5753C1732.72 85.5365 1732.22 86.3816 1731.51 87.1108C1730.81 87.8317 1729.94 88.3951 1728.9 88.8011C1727.87 89.1989 1726.7 89.3977 1725.41 89.3977ZM1751.3 74.1847L1748.67 74.9304C1748.5 74.4912 1748.26 74.0645 1747.93 73.6502C1747.62 73.2276 1747.19 72.8796 1746.64 72.6062C1746.09 72.3327 1745.39 72.196 1744.54 72.196C1743.37 72.196 1742.4 72.4653 1741.62 73.0039C1740.85 73.5342 1740.46 74.2095 1740.46 75.0298C1740.46 75.759 1740.73 76.3349 1741.26 76.7575C1741.79 77.18 1742.62 77.5322 1743.74 77.8139L1746.58 78.5099C1748.28 78.9242 1749.56 79.5581 1750.39 80.4116C1751.23 81.2567 1751.65 82.3464 1751.65 83.6804C1751.65 84.7741 1751.33 85.7519 1750.7 86.6136C1750.08 87.4754 1749.21 88.1548 1748.09 88.652C1746.97 89.1491 1745.67 89.3977 1744.19 89.3977C1742.24 89.3977 1740.63 88.9751 1739.36 88.13C1738.08 87.2848 1737.27 86.0502 1736.93 84.4261L1739.72 83.7301C1739.98 84.7576 1740.48 85.5282 1741.22 86.0419C1741.97 86.5556 1742.94 86.8125 1744.14 86.8125C1745.51 86.8125 1746.59 86.5225 1747.4 85.9425C1748.21 85.3542 1748.62 84.6499 1748.62 83.8295C1748.62 83.1667 1748.38 82.6115 1747.92 82.1641C1747.46 81.7083 1746.74 81.3686 1745.78 81.1449L1742.6 80.3991C1740.85 79.9848 1739.57 79.3427 1738.75 78.4727C1737.93 77.5943 1737.53 76.4964 1737.53 75.179C1737.53 74.1018 1737.83 73.1489 1738.44 72.3203C1739.05 71.4917 1739.88 70.8413 1740.93 70.369C1741.99 69.8967 1743.2 69.6605 1744.54 69.6605C1746.43 69.6605 1747.91 70.0748 1748.99 70.9034C1750.07 71.732 1750.84 72.8258 1751.3 74.1847ZM1773.12 89.3977C1771.53 89.3977 1770.12 88.9959 1768.9 88.1921C1767.68 87.3801 1766.73 86.2366 1766.04 84.7617C1765.36 83.2785 1765.01 81.526 1765.01 79.5043C1765.01 77.4991 1765.36 75.759 1766.04 74.2841C1766.73 72.8092 1767.69 71.6699 1768.92 70.8661C1770.14 70.0624 1771.56 69.6605 1773.17 69.6605C1774.41 69.6605 1775.39 69.8677 1776.11 70.282C1776.84 70.688 1777.4 71.152 1777.78 71.674C1778.17 72.1877 1778.47 72.6103 1778.68 72.9418H1778.93V63.5455H1781.87V89H1779.03V86.0668H1778.68C1778.47 86.4148 1778.16 86.8539 1777.76 87.3842C1777.37 87.9062 1776.8 88.3744 1776.06 88.7887C1775.32 89.1947 1774.34 89.3977 1773.12 89.3977ZM1773.51 86.7628C1774.69 86.7628 1775.68 86.4562 1776.5 85.843C1777.31 85.2216 1777.93 84.364 1778.35 83.2702C1778.77 82.1682 1778.98 80.8963 1778.98 79.4545C1778.98 78.0294 1778.78 76.7823 1778.36 75.7134C1777.95 74.6362 1777.33 73.7994 1776.52 73.2028C1775.71 72.5979 1774.71 72.2955 1773.51 72.2955C1772.27 72.2955 1771.24 72.6145 1770.41 73.2525C1769.59 73.8822 1768.97 74.7398 1768.55 75.8253C1768.15 76.9025 1767.95 78.1122 1767.95 79.4545C1767.95 80.8134 1768.15 82.0481 1768.57 83.1584C1768.99 84.2604 1769.61 85.1387 1770.43 85.7933C1771.26 86.4396 1772.29 86.7628 1773.51 86.7628ZM1787.65 89V69.9091H1790.58V89H1787.65ZM1789.14 66.7273C1788.57 66.7273 1788.07 66.5326 1787.66 66.1431C1787.25 65.7537 1787.05 65.2855 1787.05 64.7386C1787.05 64.1918 1787.25 63.7236 1787.66 63.3342C1788.07 62.9447 1788.57 62.75 1789.14 62.75C1789.71 62.75 1790.2 62.9447 1790.6 63.3342C1791.02 63.7236 1791.23 64.1918 1791.23 64.7386C1791.23 65.2855 1791.02 65.7537 1790.6 66.1431C1790.2 66.5326 1789.71 66.7273 1789.14 66.7273ZM1803.66 96.5568C1802.24 96.5568 1801.02 96.3745 1800 96.0099C1798.98 95.6536 1798.13 95.1813 1797.46 94.593C1796.78 94.013 1796.25 93.3916 1795.85 92.7287L1798.19 91.0881C1798.45 91.4361 1798.79 91.8338 1799.2 92.2812C1799.6 92.737 1800.16 93.1306 1800.86 93.462C1801.57 93.8017 1802.51 93.9716 1803.66 93.9716C1805.2 93.9716 1806.47 93.5987 1807.47 92.853C1808.48 92.1072 1808.98 90.9389 1808.98 89.348V85.4702H1808.73C1808.51 85.8182 1808.21 86.2491 1807.81 86.7628C1807.42 87.2682 1806.86 87.7198 1806.12 88.1175C1805.39 88.507 1804.4 88.7017 1803.16 88.7017C1801.62 88.7017 1800.24 88.3371 1799.01 87.608C1797.79 86.8788 1796.83 85.8182 1796.11 84.4261C1795.41 83.0341 1795.06 81.3437 1795.06 79.3551C1795.06 77.3996 1795.4 75.6969 1796.09 74.2468C1796.78 72.7885 1797.73 71.6616 1798.96 70.8661C1800.19 70.0624 1801.6 69.6605 1803.21 69.6605C1804.45 69.6605 1805.44 69.8677 1806.17 70.282C1806.91 70.688 1807.47 71.152 1807.86 71.674C1808.26 72.1877 1808.56 72.6103 1808.78 72.9418H1809.08V69.9091H1811.91V89.5469C1811.91 91.1875 1811.54 92.5215 1810.79 93.549C1810.05 94.5848 1809.06 95.3429 1807.81 95.8235C1806.57 96.3124 1805.18 96.5568 1803.66 96.5568ZM1803.56 86.0668C1804.73 86.0668 1805.73 85.7975 1806.54 85.2589C1807.35 84.7203 1807.97 83.9455 1808.39 82.9347C1808.82 81.9238 1809.03 80.714 1809.03 79.3054C1809.03 77.9299 1808.82 76.716 1808.41 75.6637C1807.99 74.6114 1807.38 73.7869 1806.57 73.1903C1805.75 72.5937 1804.75 72.2955 1803.56 72.2955C1802.31 72.2955 1801.28 72.6103 1800.45 73.2401C1799.63 73.8698 1799.01 74.715 1798.6 75.7756C1798.19 76.8362 1797.99 78.0128 1797.99 79.3054C1797.99 80.6312 1798.2 81.8036 1798.61 82.8228C1799.03 83.8337 1799.66 84.6291 1800.48 85.2092C1801.3 85.7809 1802.33 86.0668 1803.56 86.0668ZM1817.28 89V69.9091H1820.21V89H1817.28ZM1818.77 66.7273C1818.2 66.7273 1817.71 66.5326 1817.29 66.1431C1816.89 65.7537 1816.68 65.2855 1816.68 64.7386C1816.68 64.1918 1816.89 63.7236 1817.29 63.3342C1817.71 62.9447 1818.2 62.75 1818.77 62.75C1819.34 62.75 1819.83 62.9447 1820.24 63.3342C1820.65 63.7236 1820.86 64.1918 1820.86 64.7386C1820.86 65.2855 1820.65 65.7537 1820.24 66.1431C1819.83 66.5326 1819.34 66.7273 1818.77 66.7273ZM1833.89 69.9091V72.3949H1823.99V69.9091H1833.89ZM1826.88 65.3352H1829.81V83.5312C1829.81 84.3598 1829.93 84.9813 1830.17 85.3956C1830.42 85.8016 1830.73 86.075 1831.12 86.2159C1831.51 86.3485 1831.92 86.4148 1832.35 86.4148C1832.67 86.4148 1832.93 86.3982 1833.14 86.3651C1833.35 86.3236 1833.51 86.2905 1833.64 86.2656L1834.24 88.9006C1834.04 88.9751 1833.76 89.0497 1833.4 89.1243C1833.05 89.2071 1832.59 89.2486 1832.05 89.2486C1831.22 89.2486 1830.41 89.0704 1829.61 88.7141C1828.82 88.3578 1828.17 87.8151 1827.65 87.0859C1827.13 86.3568 1826.88 85.437 1826.88 84.3267V65.3352ZM1843.92 89.4474C1842.71 89.4474 1841.61 89.2196 1840.62 88.7638C1839.64 88.2998 1838.86 87.6328 1838.28 86.7628C1837.7 85.8845 1837.41 84.8239 1837.41 83.581C1837.41 82.4872 1837.62 81.6006 1838.05 80.9212C1838.48 80.2334 1839.06 79.6948 1839.78 79.3054C1840.5 78.916 1841.3 78.6259 1842.17 78.4354C1843.04 78.2365 1843.93 78.0791 1844.81 77.9631C1845.97 77.8139 1846.91 77.7021 1847.63 77.6275C1848.36 77.5446 1848.89 77.4079 1849.22 77.2173C1849.56 77.0268 1849.73 76.6953 1849.73 76.223V76.1236C1849.73 74.8973 1849.4 73.9444 1848.73 73.2649C1848.06 72.5855 1847.06 72.2457 1845.71 72.2457C1844.31 72.2457 1843.21 72.5523 1842.41 73.1655C1841.62 73.7786 1841.06 74.4332 1840.74 75.1293L1837.95 74.1349C1838.45 72.9749 1839.11 72.0717 1839.94 71.4254C1840.78 70.7708 1841.69 70.3151 1842.67 70.0582C1843.67 69.7931 1844.65 69.6605 1845.61 69.6605C1846.22 69.6605 1846.93 69.7351 1847.72 69.8842C1848.52 70.0251 1849.3 70.3192 1850.05 70.7667C1850.8 71.2141 1851.42 71.8894 1851.92 72.7926C1852.42 73.6958 1852.67 74.9055 1852.67 76.4219V89H1849.73V86.4148H1849.59C1849.39 86.8291 1849.06 87.2724 1848.59 87.7447C1848.13 88.217 1847.51 88.6188 1846.74 88.9503C1845.97 89.2817 1845.03 89.4474 1843.92 89.4474ZM1844.37 86.8125C1845.53 86.8125 1846.5 86.5846 1847.3 86.1289C1848.1 85.6732 1848.71 85.0849 1849.11 84.364C1849.53 83.6431 1849.73 82.8849 1849.73 82.0895V79.4048C1849.61 79.554 1849.34 79.6907 1848.91 79.815C1848.5 79.931 1848.02 80.0346 1847.47 80.1257C1846.93 80.2086 1846.41 80.2831 1845.89 80.3494C1845.39 80.4074 1844.98 80.4571 1844.66 80.4986C1843.9 80.598 1843.19 80.7596 1842.53 80.9833C1841.87 81.1987 1841.34 81.526 1840.93 81.9652C1840.54 82.3961 1840.34 82.9844 1840.34 83.7301C1840.34 84.7493 1840.72 85.5199 1841.47 86.0419C1842.23 86.5556 1843.2 86.8125 1844.37 86.8125ZM1860.95 63.5455V89H1858.02V63.5455H1860.95ZM1874.33 89.3977C1872.49 89.3977 1870.91 88.9917 1869.57 88.1797C1868.25 87.3594 1867.22 86.2159 1866.5 84.7493C1865.79 83.2744 1865.43 81.5592 1865.43 79.6037C1865.43 77.6482 1865.79 75.9247 1866.5 74.4332C1867.22 72.9335 1868.22 71.7652 1869.51 70.9283C1870.8 70.0831 1872.31 69.6605 1874.03 69.6605C1875.03 69.6605 1876.01 69.8262 1876.98 70.1577C1877.95 70.4891 1878.83 71.0277 1879.63 71.7734C1880.42 72.5109 1881.06 73.4886 1881.53 74.7067C1882 75.9247 1882.24 77.4245 1882.24 79.206V80.4489H1867.52V77.9134H1879.25C1879.25 76.8362 1879.04 75.875 1878.61 75.0298C1878.18 74.1847 1877.58 73.5176 1876.79 73.0288C1876.01 72.5399 1875.09 72.2955 1874.03 72.2955C1872.86 72.2955 1871.85 72.5855 1871 73.1655C1870.16 73.7372 1869.5 74.483 1869.05 75.4027C1868.59 76.3224 1868.37 77.3085 1868.37 78.3608V80.0511C1868.37 81.4929 1868.61 82.7151 1869.11 83.7177C1869.62 84.712 1870.32 85.4702 1871.21 85.9922C1872.11 86.5059 1873.15 86.7628 1874.33 86.7628C1875.1 86.7628 1875.8 86.6551 1876.42 86.4396C1877.05 86.2159 1877.59 85.8845 1878.05 85.4453C1878.5 84.9979 1878.86 84.4427 1879.1 83.7798L1881.94 84.5753C1881.64 85.5365 1881.14 86.3816 1880.43 87.1108C1879.73 87.8317 1878.86 88.3951 1877.82 88.8011C1876.79 89.1989 1875.62 89.3977 1874.33 89.3977ZM1900.22 74.1847L1897.59 74.9304C1897.42 74.4912 1897.18 74.0645 1896.85 73.6502C1896.54 73.2276 1896.11 72.8796 1895.56 72.6062C1895.01 72.3327 1894.31 72.196 1893.46 72.196C1892.29 72.196 1891.32 72.4653 1890.54 73.0039C1889.77 73.5342 1889.38 74.2095 1889.38 75.0298C1889.38 75.759 1889.65 76.3349 1890.18 76.7575C1890.71 77.18 1891.54 77.5322 1892.66 77.8139L1895.5 78.5099C1897.2 78.9242 1898.48 79.5581 1899.31 80.4116C1900.15 81.2567 1900.57 82.3464 1900.57 83.6804C1900.57 84.7741 1900.25 85.7519 1899.62 86.6136C1899 87.4754 1898.13 88.1548 1897.01 88.652C1895.9 89.1491 1894.59 89.3977 1893.11 89.3977C1891.16 89.3977 1889.55 88.9751 1888.28 88.13C1887 87.2848 1886.19 86.0502 1885.85 84.4261L1888.64 83.7301C1888.9 84.7576 1889.4 85.5282 1890.14 86.0419C1890.89 86.5556 1891.86 86.8125 1893.06 86.8125C1894.43 86.8125 1895.51 86.5225 1896.32 85.9425C1897.13 85.3542 1897.54 84.6499 1897.54 83.8295C1897.54 83.1667 1897.3 82.6115 1896.84 82.1641C1896.38 81.7083 1895.66 81.3686 1894.7 81.1449L1891.52 80.3991C1889.77 79.9848 1888.49 79.3427 1887.67 78.4727C1886.86 77.5943 1886.45 76.4964 1886.45 75.179C1886.45 74.1018 1886.75 73.1489 1887.36 72.3203C1887.97 71.4917 1888.8 70.8413 1889.86 70.369C1890.92 69.8967 1892.12 69.6605 1893.46 69.6605C1895.35 69.6605 1896.83 70.0748 1897.91 70.9034C1898.99 71.732 1899.77 72.8258 1900.22 74.1847ZM1968.52 69.9091C1968.37 68.6496 1967.77 67.6719 1966.71 66.9759C1965.65 66.2798 1964.35 65.9318 1962.8 65.9318C1961.68 65.9318 1960.69 66.1141 1959.85 66.4787C1959.01 66.8433 1958.35 67.3446 1957.88 67.9826C1957.42 68.6206 1957.19 69.3456 1957.19 70.1577C1957.19 70.8371 1957.35 71.4213 1957.67 71.9102C1958 72.3907 1958.42 72.7926 1958.94 73.1158C1959.45 73.4306 1959.99 73.6916 1960.55 73.8988C1961.12 74.0977 1961.64 74.2592 1962.11 74.3835L1964.69 75.0795C1965.36 75.2536 1966.09 75.4938 1966.91 75.8004C1967.73 76.107 1968.51 76.5254 1969.25 77.0558C1970.01 77.5778 1970.63 78.2489 1971.12 79.0692C1971.61 79.8896 1971.85 80.8963 1971.85 82.0895C1971.85 83.465 1971.49 84.7079 1970.77 85.8182C1970.06 86.9285 1969.01 87.811 1967.64 88.4656C1966.27 89.1201 1964.61 89.4474 1962.65 89.4474C1960.83 89.4474 1959.25 89.1533 1957.92 88.565C1956.59 87.9767 1955.55 87.1564 1954.79 86.104C1954.03 85.0517 1953.61 83.8295 1953.51 82.4375H1956.69C1956.77 83.3987 1957.1 84.1941 1957.66 84.8239C1958.23 85.4453 1958.95 85.9093 1959.82 86.2159C1960.7 86.5142 1961.64 86.6634 1962.65 86.6634C1963.83 86.6634 1964.89 86.4728 1965.82 86.0916C1966.76 85.7022 1967.5 85.1636 1968.05 84.4759C1968.6 83.7798 1968.87 82.9678 1968.87 82.0398C1968.87 81.1946 1968.63 80.5069 1968.16 79.9766C1967.69 79.4463 1967.07 79.0154 1966.3 78.6839C1965.53 78.3525 1964.69 78.0625 1963.8 77.8139L1960.67 76.919C1958.68 76.3473 1957.1 75.5311 1955.94 74.4705C1954.78 73.4099 1954.2 72.022 1954.2 70.3068C1954.2 68.8816 1954.59 67.6387 1955.36 66.5781C1956.14 65.5092 1957.18 64.6806 1958.49 64.0923C1959.81 63.4957 1961.28 63.1974 1962.9 63.1974C1964.54 63.1974 1966 63.4916 1967.28 64.0799C1968.55 64.6599 1969.57 65.4554 1970.31 66.4663C1971.07 67.4772 1971.46 68.6248 1971.5 69.9091H1968.52ZM1984.28 89.3977C1982.55 89.3977 1981.04 88.9876 1979.74 88.1673C1978.45 87.3469 1977.44 86.1993 1976.71 84.7244C1975.99 83.2495 1975.63 81.526 1975.63 79.554C1975.63 77.5653 1975.99 75.8294 1976.71 74.3462C1977.44 72.863 1978.45 71.7113 1979.74 70.891C1981.04 70.0707 1982.55 69.6605 1984.28 69.6605C1986 69.6605 1987.51 70.0707 1988.8 70.891C1990.1 71.7113 1991.11 72.863 1991.84 74.3462C1992.56 75.8294 1992.93 77.5653 1992.93 79.554C1992.93 81.526 1992.56 83.2495 1991.84 84.7244C1991.11 86.1993 1990.1 87.3469 1988.8 88.1673C1987.51 88.9876 1986 89.3977 1984.28 89.3977ZM1984.28 86.7628C1985.59 86.7628 1986.66 86.4272 1987.51 85.756C1988.35 85.0849 1988.98 84.2024 1989.39 83.1087C1989.79 82.0149 1990 80.83 1990 79.554C1990 78.2779 1989.79 77.0889 1989.39 75.9869C1988.98 74.8848 1988.35 73.9941 1987.51 73.3146C1986.66 72.6352 1985.59 72.2955 1984.28 72.2955C1982.97 72.2955 1981.89 72.6352 1981.05 73.3146C1980.2 73.9941 1979.58 74.8848 1979.17 75.9869C1978.76 77.0889 1978.56 78.2779 1978.56 79.554C1978.56 80.83 1978.76 82.0149 1979.17 83.1087C1979.58 84.2024 1980.2 85.0849 1981.05 85.756C1981.89 86.4272 1982.97 86.7628 1984.28 86.7628ZM2000.34 77.5156V89H1997.41V69.9091H2000.24V72.892H2000.49C2000.94 71.9226 2001.62 71.1437 2002.53 70.5554C2003.44 69.9588 2004.62 69.6605 2006.06 69.6605C2007.35 69.6605 2008.48 69.9257 2009.45 70.456C2010.42 70.978 2011.17 71.7734 2011.71 72.8423C2012.25 73.9029 2012.52 75.2453 2012.52 76.8693V89H2009.59V77.0682C2009.59 75.5684 2009.2 74.4001 2008.42 73.5632C2007.64 72.718 2006.57 72.2955 2005.21 72.2955C2004.28 72.2955 2003.44 72.4985 2002.7 72.9045C2001.97 73.3105 2001.4 73.9029 2000.97 74.6818C2000.55 75.4607 2000.34 76.4053 2000.34 77.5156ZM2017.88 89V69.9091H2020.81V89H2017.88ZM2019.37 66.7273C2018.8 66.7273 2018.31 66.5326 2017.89 66.1431C2017.49 65.7537 2017.28 65.2855 2017.28 64.7386C2017.28 64.1918 2017.49 63.7236 2017.89 63.3342C2018.31 62.9447 2018.8 62.75 2019.37 62.75C2019.94 62.75 2020.43 62.9447 2020.84 63.3342C2021.25 63.7236 2021.46 64.1918 2021.46 64.7386C2021.46 65.2855 2021.25 65.7537 2020.84 66.1431C2020.43 66.5326 2019.94 66.7273 2019.37 66.7273ZM2033.39 89.3977C2031.8 89.3977 2030.4 88.9959 2029.18 88.1921C2027.96 87.3801 2027.01 86.2366 2026.32 84.7617C2025.63 83.2785 2025.29 81.526 2025.29 79.5043C2025.29 77.4991 2025.63 75.759 2026.32 74.2841C2027.01 72.8092 2027.97 71.6699 2029.19 70.8661C2030.42 70.0624 2031.84 69.6605 2033.44 69.6605C2034.69 69.6605 2035.67 69.8677 2036.39 70.282C2037.12 70.688 2037.67 71.152 2038.06 71.674C2038.44 72.1877 2038.75 72.6103 2038.96 72.9418H2039.21V63.5455H2042.14V89H2039.31V86.0668H2038.96C2038.75 86.4148 2038.44 86.8539 2038.04 87.3842C2037.65 87.9062 2037.08 88.3744 2036.34 88.7887C2035.6 89.1947 2034.62 89.3977 2033.39 89.3977ZM2033.79 86.7628C2034.97 86.7628 2035.96 86.4562 2036.78 85.843C2037.59 85.2216 2038.2 84.364 2038.63 83.2702C2039.05 82.1682 2039.26 80.8963 2039.26 79.4545C2039.26 78.0294 2039.05 76.7823 2038.64 75.7134C2038.23 74.6362 2037.61 73.7994 2036.8 73.2028C2035.99 72.5979 2034.99 72.2955 2033.79 72.2955C2032.55 72.2955 2031.51 72.6145 2030.68 73.2525C2029.86 73.8822 2029.25 74.7398 2028.83 75.8253C2028.43 76.9025 2028.22 78.1122 2028.22 79.4545C2028.22 80.8134 2028.43 82.0481 2028.85 83.1584C2029.27 84.2604 2029.89 85.1387 2030.71 85.7933C2031.54 86.4396 2032.57 86.7628 2033.79 86.7628ZM2055.68 89.3977C2053.96 89.3977 2052.44 88.9876 2051.14 88.1673C2049.85 87.3469 2048.84 86.1993 2048.11 84.7244C2047.39 83.2495 2047.03 81.526 2047.03 79.554C2047.03 77.5653 2047.39 75.8294 2048.11 74.3462C2048.84 72.863 2049.85 71.7113 2051.14 70.891C2052.44 70.0707 2053.96 69.6605 2055.68 69.6605C2057.4 69.6605 2058.91 70.0707 2060.2 70.891C2061.5 71.7113 2062.52 72.863 2063.24 74.3462C2063.97 75.8294 2064.33 77.5653 2064.33 79.554C2064.33 81.526 2063.97 83.2495 2063.24 84.7244C2062.52 86.1993 2061.5 87.3469 2060.2 88.1673C2058.91 88.9876 2057.4 89.3977 2055.68 89.3977ZM2055.68 86.7628C2056.99 86.7628 2058.07 86.4272 2058.91 85.756C2059.76 85.0849 2060.38 84.2024 2060.79 83.1087C2061.19 82.0149 2061.4 80.83 2061.4 79.554C2061.4 78.2779 2061.19 77.0889 2060.79 75.9869C2060.38 74.8848 2059.76 73.9941 2058.91 73.3146C2058.07 72.6352 2056.99 72.2955 2055.68 72.2955C2054.37 72.2955 2053.29 72.6352 2052.45 73.3146C2051.6 73.9941 2050.98 74.8848 2050.57 75.9869C2050.17 77.0889 2049.96 78.2779 2049.96 79.554C2049.96 80.83 2050.17 82.0149 2050.57 83.1087C2050.98 84.2024 2051.6 85.0849 2052.45 85.756C2053.29 86.4272 2054.37 86.7628 2055.68 86.7628ZM2118.42 63.5455H2122.1L2130.75 84.6747H2131.05L2139.7 63.5455H2143.38V89H2140.5V69.6605H2140.25L2132.29 89H2129.51L2121.56 69.6605H2121.31V89H2118.42V63.5455ZM2154.78 89.4474C2153.57 89.4474 2152.47 89.2196 2151.49 88.7638C2150.5 88.2998 2149.72 87.6328 2149.14 86.7628C2148.56 85.8845 2148.27 84.8239 2148.27 83.581C2148.27 82.4872 2148.48 81.6006 2148.92 80.9212C2149.35 80.2334 2149.92 79.6948 2150.64 79.3054C2151.36 78.916 2152.16 78.6259 2153.03 78.4354C2153.91 78.2365 2154.79 78.0791 2155.68 77.9631C2156.84 77.8139 2157.78 77.7021 2158.5 77.6275C2159.23 77.5446 2159.76 77.4079 2160.09 77.2173C2160.43 77.0268 2160.6 76.6953 2160.6 76.223V76.1236C2160.6 74.8973 2160.26 73.9444 2159.59 73.2649C2158.93 72.5855 2157.92 72.2457 2156.57 72.2457C2155.17 72.2457 2154.07 72.5523 2153.28 73.1655C2152.48 73.7786 2151.92 74.4332 2151.6 75.1293L2148.82 74.1349C2149.31 72.9749 2149.98 72.0717 2150.8 71.4254C2151.64 70.7708 2152.55 70.3151 2153.54 70.0582C2154.53 69.7931 2155.51 69.6605 2156.47 69.6605C2157.09 69.6605 2157.79 69.7351 2158.59 69.8842C2159.39 70.0251 2160.16 70.3192 2160.91 70.7667C2161.66 71.2141 2162.29 71.8894 2162.79 72.7926C2163.28 73.6958 2163.53 74.9055 2163.53 76.4219V89H2160.6V86.4148H2160.45C2160.25 86.8291 2159.92 87.2724 2159.46 87.7447C2158.99 88.217 2158.37 88.6188 2157.6 88.9503C2156.83 89.2817 2155.89 89.4474 2154.78 89.4474ZM2155.23 86.8125C2156.39 86.8125 2157.37 86.5846 2158.16 86.1289C2158.97 85.6732 2159.57 85.0849 2159.98 84.364C2160.39 83.6431 2160.6 82.8849 2160.6 82.0895V79.4048C2160.47 79.554 2160.2 79.6907 2159.78 79.815C2159.36 79.931 2158.88 80.0346 2158.34 80.1257C2157.8 80.2086 2157.27 80.2831 2156.76 80.3494C2156.25 80.4074 2155.84 80.4571 2155.53 80.4986C2154.77 80.598 2154.05 80.7596 2153.39 80.9833C2152.74 81.1987 2152.21 81.526 2151.8 81.9652C2151.4 82.3961 2151.2 82.9844 2151.2 83.7301C2151.2 84.7493 2151.58 85.5199 2152.33 86.0419C2153.1 86.5556 2154.06 86.8125 2155.23 86.8125ZM2171.82 77.5156V89H2168.89V69.9091H2171.72V72.892H2171.97C2172.42 71.9226 2173.1 71.1437 2174.01 70.5554C2174.92 69.9588 2176.09 69.6605 2177.54 69.6605C2178.83 69.6605 2179.96 69.9257 2180.93 70.456C2181.9 70.978 2182.65 71.7734 2183.19 72.8423C2183.73 73.9029 2184 75.2453 2184 76.8693V89H2181.07V77.0682C2181.07 75.5684 2180.68 74.4001 2179.9 73.5632C2179.12 72.718 2178.05 72.2955 2176.69 72.2955C2175.75 72.2955 2174.92 72.4985 2174.18 72.9045C2173.45 73.3105 2172.88 73.9029 2172.45 74.6818C2172.03 75.4607 2171.82 76.4053 2171.82 77.5156ZM2196.57 89.3977C2194.98 89.3977 2193.57 88.9959 2192.35 88.1921C2191.14 87.3801 2190.18 86.2366 2189.5 84.7617C2188.81 83.2785 2188.46 81.526 2188.46 79.5043C2188.46 77.4991 2188.81 75.759 2189.5 74.2841C2190.18 72.8092 2191.14 71.6699 2192.37 70.8661C2193.59 70.0624 2195.01 69.6605 2196.62 69.6605C2197.86 69.6605 2198.84 69.8677 2199.56 70.282C2200.29 70.688 2200.85 71.152 2201.23 71.674C2201.62 72.1877 2201.92 72.6103 2202.14 72.9418H2202.39V63.5455H2205.32V89H2202.48V86.0668H2202.14C2201.92 86.4148 2201.61 86.8539 2201.22 87.3842C2200.82 87.9062 2200.25 88.3744 2199.51 88.7887C2198.78 89.1947 2197.79 89.3977 2196.57 89.3977ZM2196.97 86.7628C2198.14 86.7628 2199.14 86.4562 2199.95 85.843C2200.76 85.2216 2201.38 84.364 2201.8 83.2702C2202.22 82.1682 2202.43 80.8963 2202.43 79.4545C2202.43 78.0294 2202.23 76.7823 2201.81 75.7134C2201.4 74.6362 2200.79 73.7994 2199.97 73.2028C2199.16 72.5979 2198.16 72.2955 2196.97 72.2955C2195.72 72.2955 2194.69 72.6145 2193.86 73.2525C2193.04 73.8822 2192.42 74.7398 2192.01 75.8253C2191.6 76.9025 2191.4 78.1122 2191.4 79.4545C2191.4 80.8134 2191.6 82.0481 2192.02 83.1584C2192.44 84.2604 2193.06 85.1387 2193.88 85.7933C2194.71 86.4396 2195.74 86.7628 2196.97 86.7628ZM2218.85 89.3977C2217.13 89.3977 2215.62 88.9876 2214.32 88.1673C2213.02 87.3469 2212.01 86.1993 2211.28 84.7244C2210.56 83.2495 2210.2 81.526 2210.2 79.554C2210.2 77.5653 2210.56 75.8294 2211.28 74.3462C2212.01 72.863 2213.02 71.7113 2214.32 70.891C2215.62 70.0707 2217.13 69.6605 2218.85 69.6605C2220.58 69.6605 2222.08 70.0707 2223.38 70.891C2224.68 71.7113 2225.69 72.863 2226.41 74.3462C2227.14 75.8294 2227.5 77.5653 2227.5 79.554C2227.5 81.526 2227.14 83.2495 2226.41 84.7244C2225.69 86.1993 2224.68 87.3469 2223.38 88.1673C2222.08 88.9876 2220.58 89.3977 2218.85 89.3977ZM2218.85 86.7628C2220.16 86.7628 2221.24 86.4272 2222.08 85.756C2222.93 85.0849 2223.56 84.2024 2223.96 83.1087C2224.37 82.0149 2224.57 80.83 2224.57 79.554C2224.57 78.2779 2224.37 77.0889 2223.96 75.9869C2223.56 74.8848 2222.93 73.9941 2222.08 73.3146C2221.24 72.6352 2220.16 72.2955 2218.85 72.2955C2217.54 72.2955 2216.47 72.6352 2215.62 73.3146C2214.78 73.9941 2214.15 74.8848 2213.75 75.9869C2213.34 77.0889 2213.14 78.2779 2213.14 79.554C2213.14 80.83 2213.34 82.0149 2213.75 83.1087C2214.15 84.2024 2214.78 85.0849 2215.62 85.756C2216.47 86.4272 2217.54 86.7628 2218.85 86.7628ZM2245.5 74.1847L2242.87 74.9304C2242.7 74.4912 2242.46 74.0645 2242.14 73.6502C2241.82 73.2276 2241.39 72.8796 2240.84 72.6062C2240.3 72.3327 2239.6 72.196 2238.74 72.196C2237.57 72.196 2236.6 72.4653 2235.82 73.0039C2235.05 73.5342 2234.67 74.2095 2234.67 75.0298C2234.67 75.759 2234.93 76.3349 2235.46 76.7575C2235.99 77.18 2236.82 77.5322 2237.95 77.8139L2240.78 78.5099C2242.49 78.9242 2243.76 79.5581 2244.6 80.4116C2245.43 81.2567 2245.85 82.3464 2245.85 83.6804C2245.85 84.7741 2245.54 85.7519 2244.91 86.6136C2244.29 87.4754 2243.42 88.1548 2242.3 88.652C2241.18 89.1491 2239.88 89.3977 2238.39 89.3977C2236.45 89.3977 2234.84 88.9751 2233.56 88.13C2232.28 87.2848 2231.48 86.0502 2231.14 84.4261L2233.92 83.7301C2234.19 84.7576 2234.69 85.5282 2235.42 86.0419C2236.17 86.5556 2237.14 86.8125 2238.35 86.8125C2239.71 86.8125 2240.8 86.5225 2241.6 85.9425C2242.41 85.3542 2242.82 84.6499 2242.82 83.8295C2242.82 83.1667 2242.59 82.6115 2242.12 82.1641C2241.66 81.7083 2240.95 81.3686 2239.99 81.1449L2236.8 80.3991C2235.06 79.9848 2233.77 79.3427 2232.95 78.4727C2232.14 77.5943 2231.73 76.4964 2231.73 75.179C2231.73 74.1018 2232.04 73.1489 2232.64 72.3203C2233.25 71.4917 2234.09 70.8413 2235.14 70.369C2236.2 69.8967 2237.4 69.6605 2238.74 69.6605C2240.63 69.6605 2242.12 70.0748 2243.19 70.9034C2244.28 71.732 2245.05 72.8258 2245.5 74.1847ZM2300.93 89H2297.7L2307.04 63.5455H2310.23L2319.57 89H2316.34L2308.73 67.5724H2308.53L2300.93 89ZM2302.12 79.0568H2315.15V81.7912H2302.12V79.0568ZM2330.25 69.9091V72.3949H2320.35V69.9091H2330.25ZM2323.24 65.3352H2326.17V83.5312C2326.17 84.3598 2326.29 84.9813 2326.53 85.3956C2326.78 85.8016 2327.09 86.075 2327.47 86.2159C2327.86 86.3485 2328.27 86.4148 2328.7 86.4148C2329.03 86.4148 2329.29 86.3982 2329.5 86.3651C2329.71 86.3236 2329.87 86.2905 2330 86.2656L2330.59 88.9006C2330.39 88.9751 2330.12 89.0497 2329.76 89.1243C2329.4 89.2071 2328.95 89.2486 2328.41 89.2486C2327.58 89.2486 2326.76 89.0704 2325.97 88.7141C2325.18 88.3578 2324.53 87.8151 2324.01 87.0859C2323.49 86.3568 2323.24 85.437 2323.24 84.3267V65.3352ZM2342.46 89.3977C2340.62 89.3977 2339.03 88.9917 2337.7 88.1797C2336.37 87.3594 2335.35 86.2159 2334.63 84.7493C2333.91 83.2744 2333.56 81.5592 2333.56 79.6037C2333.56 77.6482 2333.91 75.9247 2334.63 74.4332C2335.35 72.9335 2336.35 71.7652 2337.63 70.9283C2338.93 70.0831 2340.43 69.6605 2342.16 69.6605C2343.15 69.6605 2344.13 69.8262 2345.1 70.1577C2346.07 70.4891 2346.96 71.0277 2347.75 71.7734C2348.55 72.5109 2349.18 73.4886 2349.65 74.7067C2350.13 75.9247 2350.36 77.4245 2350.36 79.206V80.4489H2335.65V77.9134H2347.38C2347.38 76.8362 2347.16 75.875 2346.73 75.0298C2346.31 74.1847 2345.7 73.5176 2344.92 73.0288C2344.14 72.5399 2343.22 72.2955 2342.16 72.2955C2340.99 72.2955 2339.98 72.5855 2339.13 73.1655C2338.28 73.7372 2337.63 74.483 2337.17 75.4027C2336.72 76.3224 2336.49 77.3085 2336.49 78.3608V80.0511C2336.49 81.4929 2336.74 82.7151 2337.24 83.7177C2337.74 84.712 2338.44 85.4702 2339.34 85.9922C2340.23 86.5059 2341.27 86.7628 2342.46 86.7628C2343.23 86.7628 2343.92 86.6551 2344.54 86.4396C2345.17 86.2159 2345.72 85.8845 2346.17 85.4453C2346.63 84.9979 2346.98 84.4427 2347.23 83.7798L2350.06 84.5753C2349.76 85.5365 2349.26 86.3816 2348.56 87.1108C2347.85 87.8317 2346.98 88.3951 2345.95 88.8011C2344.91 89.1989 2343.75 89.3977 2342.46 89.3977ZM2357.76 77.5156V89H2354.82V69.9091H2357.66V72.892H2357.91C2358.35 71.9226 2359.03 71.1437 2359.94 70.5554C2360.86 69.9588 2362.03 69.6605 2363.47 69.6605C2364.77 69.6605 2365.9 69.9257 2366.87 70.456C2367.84 70.978 2368.59 71.7734 2369.13 72.8423C2369.67 73.9029 2369.94 75.2453 2369.94 76.8693V89H2367V77.0682C2367 75.5684 2366.61 74.4001 2365.84 73.5632C2365.06 72.718 2363.99 72.2955 2362.63 72.2955C2361.69 72.2955 2360.86 72.4985 2360.12 72.9045C2359.39 73.3105 2358.81 73.9029 2358.39 74.6818C2357.97 75.4607 2357.76 76.4053 2357.76 77.5156ZM2383.05 89.3977C2381.26 89.3977 2379.72 88.9751 2378.43 88.13C2377.14 87.2848 2376.14 86.1206 2375.45 84.6374C2374.75 83.1542 2374.4 81.4598 2374.4 79.554C2374.4 77.6151 2374.76 75.904 2375.47 74.4208C2376.19 72.9293 2377.19 71.7652 2378.48 70.9283C2379.77 70.0831 2381.28 69.6605 2383 69.6605C2384.35 69.6605 2385.56 69.9091 2386.63 70.4062C2387.71 70.9034 2388.59 71.5994 2389.28 72.4943C2389.97 73.3892 2390.39 74.4332 2390.56 75.6264H2387.63C2387.4 74.7564 2386.91 73.9858 2386.14 73.3146C2385.37 72.6352 2384.35 72.2955 2383.05 72.2955C2381.91 72.2955 2380.91 72.5937 2380.04 73.1903C2379.19 73.7786 2378.52 74.6114 2378.04 75.6886C2377.57 76.7575 2377.34 78.0128 2377.34 79.4545C2377.34 80.9295 2377.57 82.2138 2378.03 83.3075C2378.5 84.4013 2379.17 85.2506 2380.02 85.8555C2380.88 86.4603 2381.89 86.7628 2383.05 86.7628C2383.81 86.7628 2384.51 86.6302 2385.13 86.3651C2385.75 86.0999 2386.28 85.7188 2386.71 85.2216C2387.14 84.7244 2387.44 84.1278 2387.63 83.4318H2390.56C2390.39 84.5587 2389.98 85.5737 2389.33 86.4769C2388.68 87.3718 2387.83 88.0844 2386.76 88.6147C2385.7 89.1367 2384.46 89.3977 2383.05 89.3977ZM2394.85 89V69.9091H2397.78V89H2394.85ZM2396.34 66.7273C2395.77 66.7273 2395.27 66.5326 2394.86 66.1431C2394.45 65.7537 2394.25 65.2855 2394.25 64.7386C2394.25 64.1918 2394.45 63.7236 2394.86 63.3342C2395.27 62.9447 2395.77 62.75 2396.34 62.75C2396.91 62.75 2397.4 62.9447 2397.81 63.3342C2398.22 63.7236 2398.43 64.1918 2398.43 64.7386C2398.43 65.2855 2398.22 65.7537 2397.81 66.1431C2397.4 66.5326 2396.91 66.7273 2396.34 66.7273ZM2410.91 89.3977C2409.19 89.3977 2407.67 88.9876 2406.37 88.1673C2405.08 87.3469 2404.07 86.1993 2403.34 84.7244C2402.62 83.2495 2402.26 81.526 2402.26 79.554C2402.26 77.5653 2402.62 75.8294 2403.34 74.3462C2404.07 72.863 2405.08 71.7113 2406.37 70.891C2407.67 70.0707 2409.19 69.6605 2410.91 69.6605C2412.63 69.6605 2414.14 70.0707 2415.43 70.891C2416.73 71.7113 2417.75 72.863 2418.47 74.3462C2419.2 75.8294 2419.56 77.5653 2419.56 79.554C2419.56 81.526 2419.2 83.2495 2418.47 84.7244C2417.75 86.1993 2416.73 87.3469 2415.43 88.1673C2414.14 88.9876 2412.63 89.3977 2410.91 89.3977ZM2410.91 86.7628C2412.22 86.7628 2413.3 86.4272 2414.14 85.756C2414.99 85.0849 2415.61 84.2024 2416.02 83.1087C2416.42 82.0149 2416.63 80.83 2416.63 79.554C2416.63 78.2779 2416.42 77.0889 2416.02 75.9869C2415.61 74.8848 2414.99 73.9941 2414.14 73.3146C2413.3 72.6352 2412.22 72.2955 2410.91 72.2955C2409.6 72.2955 2408.52 72.6352 2407.68 73.3146C2406.83 73.9941 2406.21 74.8848 2405.8 75.9869C2405.39 77.0889 2405.19 78.2779 2405.19 79.554C2405.19 80.83 2405.39 82.0149 2405.8 83.1087C2406.21 84.2024 2406.83 85.0849 2407.68 85.756C2408.52 86.4272 2409.6 86.7628 2410.91 86.7628ZM2409.57 67.3239L2412.6 61.5568H2416.03L2412.15 67.3239H2409.57ZM2426.97 77.5156V89H2424.04V69.9091H2426.87V72.892H2427.12C2427.57 71.9226 2428.25 71.1437 2429.16 70.5554C2430.07 69.9588 2431.25 69.6605 2432.69 69.6605C2433.98 69.6605 2435.11 69.9257 2436.08 70.456C2437.05 70.978 2437.8 71.7734 2438.34 72.8423C2438.88 73.9029 2439.15 75.2453 2439.15 76.8693V89H2436.22V77.0682C2436.22 75.5684 2435.83 74.4001 2435.05 73.5632C2434.27 72.718 2433.2 72.2955 2431.84 72.2955C2430.91 72.2955 2430.07 72.4985 2429.33 72.9045C2428.6 73.3105 2428.03 73.9029 2427.6 74.6818C2427.18 75.4607 2426.97 76.4053 2426.97 77.5156ZM2459.97 89.4474C2458.76 89.4474 2457.66 89.2196 2456.68 88.7638C2455.69 88.2998 2454.91 87.6328 2454.33 86.7628C2453.75 85.8845 2453.46 84.8239 2453.46 83.581C2453.46 82.4872 2453.68 81.6006 2454.11 80.9212C2454.54 80.2334 2455.11 79.6948 2455.83 79.3054C2456.55 78.916 2457.35 78.6259 2458.22 78.4354C2459.1 78.2365 2459.98 78.0791 2460.87 77.9631C2462.03 77.8139 2462.97 77.7021 2463.69 77.6275C2464.42 77.5446 2464.95 77.4079 2465.28 77.2173C2465.62 77.0268 2465.79 76.6953 2465.79 76.223V76.1236C2465.79 74.8973 2465.45 73.9444 2464.78 73.2649C2464.12 72.5855 2463.11 72.2457 2461.76 72.2457C2460.36 72.2457 2459.26 72.5523 2458.47 73.1655C2457.67 73.7786 2457.11 74.4332 2456.79 75.1293L2454.01 74.1349C2454.5 72.9749 2455.17 72.0717 2456 71.4254C2456.83 70.7708 2457.74 70.3151 2458.73 70.0582C2459.72 69.7931 2460.7 69.6605 2461.66 69.6605C2462.28 69.6605 2462.98 69.7351 2463.78 69.8842C2464.58 70.0251 2465.35 70.3192 2466.1 70.7667C2466.85 71.2141 2467.48 71.8894 2467.98 72.7926C2468.47 73.6958 2468.72 74.9055 2468.72 76.4219V89H2465.79V86.4148H2465.64C2465.44 86.8291 2465.11 87.2724 2464.65 87.7447C2464.18 88.217 2463.56 88.6188 2462.79 88.9503C2462.02 89.2817 2461.08 89.4474 2459.97 89.4474ZM2460.42 86.8125C2461.58 86.8125 2462.56 86.5846 2463.35 86.1289C2464.16 85.6732 2464.76 85.0849 2465.17 84.364C2465.58 83.6431 2465.79 82.8849 2465.79 82.0895V79.4048C2465.66 79.554 2465.39 79.6907 2464.97 79.815C2464.55 79.931 2464.07 80.0346 2463.53 80.1257C2462.99 80.2086 2462.46 80.2831 2461.95 80.3494C2461.44 80.4074 2461.03 80.4571 2460.72 80.4986C2459.96 80.598 2459.24 80.7596 2458.58 80.9833C2457.93 81.1987 2457.4 81.526 2456.99 81.9652C2456.59 82.3961 2456.39 82.9844 2456.39 83.7301C2456.39 84.7493 2456.77 85.5199 2457.52 86.0419C2458.29 86.5556 2459.25 86.8125 2460.42 86.8125ZM2477.01 63.5455V89H2474.08V63.5455H2477.01ZM2513.11 71.5H2510.02C2509.84 70.6134 2509.52 69.8345 2509.07 69.1634C2508.62 68.4922 2508.07 67.9287 2507.43 67.473C2506.79 67.009 2506.08 66.661 2505.3 66.429C2504.52 66.197 2503.71 66.081 2502.86 66.081C2501.32 66.081 2499.93 66.4704 2498.68 67.2493C2497.43 68.0282 2496.44 69.1758 2495.71 70.6921C2494.98 72.2085 2494.61 74.0687 2494.61 76.2727C2494.61 78.4768 2494.98 80.337 2495.71 81.8533C2496.44 83.3697 2497.43 84.5173 2498.68 85.2962C2499.93 86.075 2501.32 86.4645 2502.86 86.4645C2503.71 86.4645 2504.52 86.3485 2505.3 86.1165C2506.08 85.8845 2506.79 85.5406 2507.43 85.0849C2508.07 84.6209 2508.62 84.0533 2509.07 83.3821C2509.52 82.7027 2509.84 81.9238 2510.02 81.0455H2513.11C2512.87 82.3464 2512.45 83.5105 2511.84 84.538C2511.23 85.5655 2510.46 86.4396 2509.55 87.1605C2508.64 87.8731 2507.62 88.4158 2506.48 88.7887C2505.35 89.1616 2504.15 89.348 2502.86 89.348C2500.69 89.348 2498.76 88.8177 2497.07 87.7571C2495.38 86.6965 2494.05 85.1884 2493.08 83.233C2492.11 81.2775 2491.63 78.9574 2491.63 76.2727C2491.63 73.5881 2492.11 71.268 2493.08 69.3125C2494.05 67.357 2495.38 65.849 2497.07 64.7884C2498.76 63.7277 2500.69 63.1974 2502.86 63.1974C2504.15 63.1974 2505.35 63.3839 2506.48 63.7567C2507.62 64.1296 2508.64 64.6765 2509.55 65.3974C2510.46 66.11 2511.23 66.98 2511.84 68.0075C2512.45 69.0266 2512.87 70.1908 2513.11 71.5ZM2520.62 63.5455V89H2517.69V63.5455H2520.62ZM2526 89V69.9091H2528.93V89H2526ZM2527.49 66.7273C2526.91 66.7273 2526.42 66.5326 2526.01 66.1431C2525.6 65.7537 2525.4 65.2855 2525.4 64.7386C2525.4 64.1918 2525.6 63.7236 2526.01 63.3342C2526.42 62.9447 2526.91 62.75 2527.49 62.75C2528.06 62.75 2528.55 62.9447 2528.95 63.3342C2529.37 63.7236 2529.57 64.1918 2529.57 64.7386C2529.57 65.2855 2529.37 65.7537 2528.95 66.1431C2528.55 66.5326 2528.06 66.7273 2527.49 66.7273ZM2542.31 89.3977C2540.47 89.3977 2538.88 88.9917 2537.54 88.1797C2536.22 87.3594 2535.2 86.2159 2534.47 84.7493C2533.76 83.2744 2533.41 81.5592 2533.41 79.6037C2533.41 77.6482 2533.76 75.9247 2534.47 74.4332C2535.2 72.9335 2536.2 71.7652 2537.48 70.9283C2538.78 70.0831 2540.28 69.6605 2542.01 69.6605C2543 69.6605 2543.98 69.8262 2544.95 70.1577C2545.92 70.4891 2546.8 71.0277 2547.6 71.7734C2548.4 72.5109 2549.03 73.4886 2549.5 74.7067C2549.97 75.9247 2550.21 77.4245 2550.21 79.206V80.4489H2535.49V77.9134H2547.23C2547.23 76.8362 2547.01 75.875 2546.58 75.0298C2546.16 74.1847 2545.55 73.5176 2544.77 73.0288C2543.99 72.5399 2543.07 72.2955 2542.01 72.2955C2540.84 72.2955 2539.83 72.5855 2538.97 73.1655C2538.13 73.7372 2537.48 74.483 2537.02 75.4027C2536.57 76.3224 2536.34 77.3085 2536.34 78.3608V80.0511C2536.34 81.4929 2536.59 82.7151 2537.08 83.7177C2537.59 84.712 2538.29 85.4702 2539.19 85.9922C2540.08 86.5059 2541.12 86.7628 2542.31 86.7628C2543.08 86.7628 2543.77 86.6551 2544.39 86.4396C2545.02 86.2159 2545.57 85.8845 2546.02 85.4453C2546.48 84.9979 2546.83 84.4427 2547.08 83.7798L2549.91 84.5753C2549.61 85.5365 2549.11 86.3816 2548.41 87.1108C2547.7 87.8317 2546.83 88.3951 2545.8 88.8011C2544.76 89.1989 2543.6 89.3977 2542.31 89.3977ZM2557.61 77.5156V89H2554.67V69.9091H2557.51V72.892H2557.75C2558.2 71.9226 2558.88 71.1437 2559.79 70.5554C2560.7 69.9588 2561.88 69.6605 2563.32 69.6605C2564.62 69.6605 2565.75 69.9257 2566.72 70.456C2567.69 70.978 2568.44 71.7734 2568.98 72.8423C2569.52 73.9029 2569.79 75.2453 2569.79 76.8693V89H2566.85V77.0682C2566.85 75.5684 2566.46 74.4001 2565.68 73.5632C2564.91 72.718 2563.84 72.2955 2562.48 72.2955C2561.54 72.2955 2560.7 72.4985 2559.97 72.9045C2559.24 73.3105 2558.66 73.9029 2558.24 74.6818C2557.82 75.4607 2557.61 76.4053 2557.61 77.5156ZM2583.45 69.9091V72.3949H2573.55V69.9091H2583.45ZM2576.44 65.3352H2579.37V83.5312C2579.37 84.3598 2579.49 84.9813 2579.73 85.3956C2579.98 85.8016 2580.3 86.075 2580.68 86.2159C2581.07 86.3485 2581.48 86.4148 2581.91 86.4148C2582.23 86.4148 2582.5 86.3982 2582.7 86.3651C2582.91 86.3236 2583.08 86.2905 2583.2 86.2656L2583.8 88.9006C2583.6 88.9751 2583.32 89.0497 2582.96 89.1243C2582.61 89.2071 2582.16 89.2486 2581.61 89.2486C2580.78 89.2486 2579.97 89.0704 2579.17 88.7141C2578.39 88.3578 2577.73 87.8151 2577.21 87.0859C2576.7 86.3568 2576.44 85.437 2576.44 84.3267V65.3352ZM2595.66 89.3977C2593.82 89.3977 2592.23 88.9917 2590.9 88.1797C2589.57 87.3594 2588.55 86.2159 2587.83 84.7493C2587.12 83.2744 2586.76 81.5592 2586.76 79.6037C2586.76 77.6482 2587.12 75.9247 2587.83 74.4332C2588.55 72.9335 2589.55 71.7652 2590.84 70.9283C2592.13 70.0831 2593.64 69.6605 2595.36 69.6605C2596.36 69.6605 2597.34 69.8262 2598.31 70.1577C2599.28 70.4891 2600.16 71.0277 2600.95 71.7734C2601.75 72.5109 2602.38 73.4886 2602.86 74.7067C2603.33 75.9247 2603.56 77.4245 2603.56 79.206V80.4489H2588.85V77.9134H2600.58C2600.58 76.8362 2600.37 75.875 2599.94 75.0298C2599.51 74.1847 2598.91 73.5176 2598.12 73.0288C2597.34 72.5399 2596.42 72.2955 2595.36 72.2955C2594.19 72.2955 2593.18 72.5855 2592.33 73.1655C2591.48 73.7372 2590.83 74.483 2590.38 75.4027C2589.92 76.3224 2589.69 77.3085 2589.69 78.3608V80.0511C2589.69 81.4929 2589.94 82.7151 2590.44 83.7177C2590.94 84.712 2591.65 85.4702 2592.54 85.9922C2593.43 86.5059 2594.47 86.7628 2595.66 86.7628C2596.43 86.7628 2597.13 86.6551 2597.75 86.4396C2598.38 86.2159 2598.92 85.8845 2599.38 85.4453C2599.83 84.9979 2600.18 84.4427 2600.43 83.7798L2603.27 84.5753C2602.97 85.5365 2602.47 86.3816 2601.76 87.1108C2601.06 87.8317 2600.19 88.3951 2599.15 88.8011C2598.12 89.1989 2596.95 89.3977 2595.66 89.3977ZM2831.25 67.9826V63.5455H2852.15V67.9826H2844.36V89H2839.04V67.9826H2831.25ZM2855.5 89V69.9091H2860.79V89H2855.5ZM2858.16 67.4482C2857.37 67.4482 2856.69 67.1871 2856.13 66.6651C2855.58 66.1348 2855.3 65.5009 2855.3 64.7635C2855.3 64.0343 2855.58 63.4087 2856.13 62.8867C2856.69 62.3564 2857.37 62.0913 2858.16 62.0913C2858.94 62.0913 2859.61 62.3564 2860.17 62.8867C2860.73 63.4087 2861.02 64.0343 2861.02 64.7635C2861.02 65.5009 2860.73 66.1348 2860.17 66.6651C2859.61 67.1871 2858.94 67.4482 2858.16 67.4482ZM2873.73 89.3729C2871.77 89.3729 2870.08 88.9751 2868.66 88.1797C2867.25 87.3759 2866.17 86.2408 2865.41 84.7741C2864.64 83.2992 2864.26 81.555 2864.26 79.5415C2864.26 77.5778 2864.64 75.8543 2865.41 74.3711C2866.17 72.8879 2867.24 71.732 2868.62 70.9034C2870.02 70.0748 2871.65 69.6605 2873.52 69.6605C2874.78 69.6605 2875.95 69.8635 2877.04 70.2695C2878.13 70.6673 2879.09 71.268 2879.9 72.0717C2880.72 72.8755 2881.36 73.8864 2881.81 75.1044C2882.27 76.3142 2882.5 77.7311 2882.5 79.3551V80.8093H2866.38V77.5281H2877.51C2877.51 76.7657 2877.35 76.0904 2877.01 75.5021C2876.68 74.9138 2876.22 74.454 2875.63 74.1225C2875.05 73.7828 2874.38 73.6129 2873.61 73.6129C2872.81 73.6129 2872.09 73.7994 2871.47 74.1722C2870.86 74.5368 2870.38 75.0298 2870.03 75.6513C2869.68 76.2644 2869.5 76.948 2869.49 77.7021V80.8217C2869.49 81.7663 2869.67 82.5825 2870.02 83.2702C2870.37 83.958 2870.87 84.4883 2871.52 84.8612C2872.17 85.234 2872.93 85.4205 2873.82 85.4205C2874.41 85.4205 2874.95 85.3376 2875.44 85.1719C2875.92 85.0062 2876.34 84.7576 2876.69 84.4261C2877.04 84.0947 2877.3 83.6887 2877.49 83.2081L2882.38 83.5312C2882.14 84.7079 2881.63 85.7353 2880.85 86.6136C2880.09 87.4837 2879.11 88.1631 2877.9 88.652C2876.7 89.1326 2875.31 89.3729 2873.73 89.3729ZM2891.25 77.9631V89H2885.95V69.9091H2891V73.2773H2891.22C2891.64 72.167 2892.35 71.2887 2893.35 70.6424C2894.34 69.9878 2895.55 69.6605 2896.96 69.6605C2898.29 69.6605 2899.44 69.9505 2900.43 70.5305C2901.42 71.1106 2902.18 71.9392 2902.73 73.0163C2903.28 74.0852 2903.55 75.3613 2903.55 76.8445V89H2898.26V77.7891C2898.26 76.6207 2897.97 75.7093 2897.36 75.0547C2896.76 74.3918 2895.92 74.0604 2894.86 74.0604C2894.15 74.0604 2893.52 74.2137 2892.97 74.5202C2892.43 74.8268 2892.01 75.2743 2891.71 75.8626C2891.41 76.4426 2891.25 77.1428 2891.25 77.9631ZM2914.76 89.3107C2913.31 89.3107 2911.99 88.9379 2910.82 88.1921C2909.65 87.4381 2908.72 86.3319 2908.03 84.8736C2907.35 83.407 2907.01 81.6089 2907.01 79.4794C2907.01 77.2919 2907.37 75.4731 2908.07 74.0231C2908.78 72.5647 2909.71 71.4751 2910.88 70.7543C2912.06 70.0251 2913.35 69.6605 2914.75 69.6605C2915.81 69.6605 2916.71 69.8428 2917.42 70.2074C2918.14 70.5637 2918.72 71.0111 2919.16 71.5497C2919.61 72.08 2919.95 72.602 2920.18 73.1158H2920.34V63.5455H2925.62V89H2920.4V85.9425H2920.18C2919.93 86.4728 2919.58 86.9989 2919.12 87.521C2918.67 88.0347 2918.09 88.4614 2917.37 88.8011C2916.66 89.1409 2915.79 89.3107 2914.76 89.3107ZM2916.44 85.0973C2917.29 85.0973 2918.01 84.8653 2918.6 84.4013C2919.2 83.929 2919.65 83.2702 2919.97 82.4251C2920.29 81.5799 2920.45 80.5897 2920.45 79.4545C2920.45 78.3194 2920.29 77.3333 2919.98 76.4964C2919.66 75.6596 2919.21 75.0133 2918.61 74.5575C2918.01 74.1018 2917.29 73.8739 2916.44 73.8739C2915.57 73.8739 2914.83 74.1101 2914.24 74.5824C2913.64 75.0547 2913.19 75.7093 2912.88 76.5462C2912.57 77.383 2912.42 78.3525 2912.42 79.4545C2912.42 80.5649 2912.57 81.5468 2912.88 82.4002C2913.2 83.2454 2913.65 83.9083 2914.24 84.3888C2914.83 84.8612 2915.57 85.0973 2916.44 85.0973ZM2935.42 89.3604C2934.2 89.3604 2933.11 89.1491 2932.16 88.7266C2931.21 88.2957 2930.45 87.6618 2929.9 86.8249C2929.35 85.9798 2929.08 84.9274 2929.08 83.668C2929.08 82.6074 2929.27 81.7166 2929.66 80.9957C2930.05 80.2749 2930.58 79.6948 2931.25 79.2557C2931.93 78.8165 2932.69 78.4851 2933.54 78.2614C2934.4 78.0376 2935.31 77.8802 2936.25 77.7891C2937.36 77.6731 2938.26 77.5653 2938.94 77.4659C2939.61 77.3582 2940.11 77.2008 2940.41 76.9936C2940.72 76.7865 2940.87 76.4799 2940.87 76.0739V75.9993C2940.87 75.2121 2940.63 74.6031 2940.13 74.1722C2939.64 73.7414 2938.94 73.5259 2938.04 73.5259C2937.09 73.5259 2936.33 73.7372 2935.77 74.1598C2935.2 74.5741 2934.83 75.0961 2934.65 75.7259L2929.75 75.3281C2930 74.1681 2930.49 73.1655 2931.22 72.3203C2931.95 71.4669 2932.89 70.8123 2934.04 70.3565C2935.2 69.8925 2936.54 69.6605 2938.07 69.6605C2939.13 69.6605 2940.14 69.7848 2941.11 70.0334C2942.09 70.282 2942.95 70.6673 2943.71 71.1893C2944.47 71.7113 2945.07 72.3825 2945.51 73.2028C2945.95 74.0148 2946.17 74.9884 2946.17 76.1236V89H2941.15V86.3526H2941C2940.69 86.9492 2940.28 87.4754 2939.77 87.9311C2939.25 88.3786 2938.64 88.7307 2937.92 88.9876C2937.2 89.2362 2936.36 89.3604 2935.42 89.3604ZM2936.93 85.7063C2937.71 85.7063 2938.4 85.553 2939 85.2464C2939.59 84.9316 2940.06 84.509 2940.4 83.9787C2940.74 83.4484 2940.91 82.8477 2940.91 82.1765V80.1506C2940.75 80.2583 2940.52 80.3577 2940.23 80.4489C2939.95 80.5317 2939.63 80.6104 2939.27 80.685C2938.91 80.7513 2938.56 80.8134 2938.2 80.8714C2937.85 80.9212 2937.52 80.9667 2937.23 81.0082C2936.61 81.0993 2936.07 81.2443 2935.6 81.4432C2935.14 81.642 2934.78 81.9113 2934.52 82.2511C2934.27 82.5825 2934.14 82.9968 2934.14 83.494C2934.14 84.2148 2934.4 84.7659 2934.92 85.147C2935.45 85.5199 2936.12 85.7063 2936.93 85.7063ZM3061.32 76.2727C3061.32 78.9574 3060.83 81.2775 3059.86 83.233C3058.89 85.1884 3057.56 86.6965 3055.87 87.7571C3054.18 88.8177 3052.25 89.348 3050.08 89.348C3047.91 89.348 3045.98 88.8177 3044.29 87.7571C3042.6 86.6965 3041.27 85.1884 3040.3 83.233C3039.33 81.2775 3038.85 78.9574 3038.85 76.2727C3038.85 73.5881 3039.33 71.268 3040.3 69.3125C3041.27 67.357 3042.6 65.849 3044.29 64.7884C3045.98 63.7277 3047.91 63.1974 3050.08 63.1974C3052.25 63.1974 3054.18 63.7277 3055.87 64.7884C3057.56 65.849 3058.89 67.357 3059.86 69.3125C3060.83 71.268 3061.32 73.5881 3061.32 76.2727ZM3058.33 76.2727C3058.33 74.0687 3057.97 72.2085 3057.23 70.6921C3056.5 69.1758 3055.51 68.0282 3054.26 67.2493C3053.01 66.4704 3051.62 66.081 3050.08 66.081C3048.54 66.081 3047.14 66.4704 3045.89 67.2493C3044.65 68.0282 3043.66 69.1758 3042.92 70.6921C3042.19 72.2085 3041.83 74.0687 3041.83 76.2727C3041.83 78.4768 3042.19 80.337 3042.92 81.8533C3043.66 83.3697 3044.65 84.5173 3045.89 85.2962C3047.14 86.075 3048.54 86.4645 3050.08 86.4645C3051.62 86.4645 3053.01 86.075 3054.26 85.2962C3055.51 84.5173 3056.5 83.3697 3057.23 81.8533C3057.97 80.337 3058.33 78.4768 3058.33 76.2727ZM3074.6 69.9091V72.3949H3064.31V69.9091H3074.6ZM3067.4 89V67.2741C3067.4 66.1804 3067.65 65.2689 3068.17 64.5398C3068.68 63.8106 3069.35 63.2637 3070.17 62.8991C3070.99 62.5346 3071.85 62.3523 3072.76 62.3523C3073.49 62.3523 3074.07 62.4103 3074.53 62.5263C3074.99 62.6423 3075.32 62.75 3075.55 62.8494L3074.7 65.3849C3074.55 65.3352 3074.35 65.2731 3074.08 65.1985C3073.83 65.1239 3073.49 65.0866 3073.06 65.0866C3072.09 65.0866 3071.39 65.3311 3070.96 65.82C3070.54 66.3088 3070.33 67.0256 3070.33 67.9702V89H3067.4ZM3085.93 89.3977C3084.09 89.3977 3082.51 88.9917 3081.17 88.1797C3079.85 87.3594 3078.82 86.2159 3078.1 84.7493C3077.39 83.2744 3077.03 81.5592 3077.03 79.6037C3077.03 77.6482 3077.39 75.9247 3078.1 74.4332C3078.82 72.9335 3079.83 71.7652 3081.11 70.9283C3082.4 70.0831 3083.91 69.6605 3085.63 69.6605C3086.63 69.6605 3087.61 69.8262 3088.58 70.1577C3089.55 70.4891 3090.43 71.0277 3091.23 71.7734C3092.02 72.5109 3092.66 73.4886 3093.13 74.7067C3093.6 75.9247 3093.84 77.4245 3093.84 79.206V80.4489H3079.12V77.9134H3090.85C3090.85 76.8362 3090.64 75.875 3090.21 75.0298C3089.79 74.1847 3089.18 73.5176 3088.39 73.0288C3087.62 72.5399 3086.7 72.2955 3085.63 72.2955C3084.47 72.2955 3083.46 72.5855 3082.6 73.1655C3081.76 73.7372 3081.11 74.483 3080.65 75.4027C3080.2 76.3224 3079.97 77.3085 3079.97 78.3608V80.0511C3079.97 81.4929 3080.22 82.7151 3080.71 83.7177C3081.22 84.712 3081.92 85.4702 3082.81 85.9922C3083.71 86.5059 3084.75 86.7628 3085.93 86.7628C3086.7 86.7628 3087.4 86.6551 3088.02 86.4396C3088.65 86.2159 3089.19 85.8845 3089.65 85.4453C3090.11 84.9979 3090.46 84.4427 3090.71 83.7798L3093.54 84.5753C3093.24 85.5365 3092.74 86.3816 3092.04 87.1108C3091.33 87.8317 3090.46 88.3951 3089.43 88.8011C3088.39 89.1989 3087.23 89.3977 3085.93 89.3977ZM3098.3 89V69.9091H3101.13V72.7926H3101.33C3101.68 71.848 3102.31 71.0816 3103.22 70.4933C3104.13 69.9049 3105.16 69.6108 3106.3 69.6108C3106.52 69.6108 3106.79 69.6149 3107.11 69.6232C3107.44 69.6315 3107.68 69.6439 3107.85 69.6605V72.6435C3107.75 72.6186 3107.52 72.5813 3107.16 72.5316C3106.81 72.4736 3106.45 72.4446 3106.06 72.4446C3105.13 72.4446 3104.3 72.6393 3103.57 73.0288C3102.85 73.4099 3102.28 73.9402 3101.85 74.6197C3101.44 75.2908 3101.23 76.0573 3101.23 76.919V89H3098.3ZM3120.82 69.9091V72.3949H3110.93V69.9091H3120.82ZM3113.81 65.3352H3116.74V83.5312C3116.74 84.3598 3116.86 84.9813 3117.1 85.3956C3117.35 85.8016 3117.67 86.075 3118.05 86.2159C3118.44 86.3485 3118.85 86.4148 3119.28 86.4148C3119.6 86.4148 3119.87 86.3982 3120.08 86.3651C3120.28 86.3236 3120.45 86.2905 3120.57 86.2656L3121.17 88.9006C3120.97 88.9751 3120.69 89.0497 3120.34 89.1243C3119.98 89.2071 3119.53 89.2486 3118.98 89.2486C3118.15 89.2486 3117.34 89.0704 3116.55 88.7141C3115.76 88.3578 3115.1 87.8151 3114.58 87.0859C3114.07 86.3568 3113.81 85.437 3113.81 84.3267V65.3352ZM3130.85 89.4474C3129.64 89.4474 3128.54 89.2196 3127.56 88.7638C3126.57 88.2998 3125.79 87.6328 3125.21 86.7628C3124.63 85.8845 3124.34 84.8239 3124.34 83.581C3124.34 82.4872 3124.55 81.6006 3124.98 80.9212C3125.42 80.2334 3125.99 79.6948 3126.71 79.3054C3127.43 78.916 3128.23 78.6259 3129.1 78.4354C3129.98 78.2365 3130.86 78.0791 3131.75 77.9631C3132.91 77.8139 3133.85 77.7021 3134.57 77.6275C3135.3 77.5446 3135.83 77.4079 3136.16 77.2173C3136.5 77.0268 3136.67 76.6953 3136.67 76.223V76.1236C3136.67 74.8973 3136.33 73.9444 3135.66 73.2649C3135 72.5855 3133.99 72.2457 3132.64 72.2457C3131.24 72.2457 3130.14 72.5523 3129.35 73.1655C3128.55 73.7786 3127.99 74.4332 3127.67 75.1293L3124.89 74.1349C3125.38 72.9749 3126.05 72.0717 3126.87 71.4254C3127.71 70.7708 3128.62 70.3151 3129.61 70.0582C3130.6 69.7931 3131.58 69.6605 3132.54 69.6605C3133.15 69.6605 3133.86 69.7351 3134.65 69.8842C3135.46 70.0251 3136.23 70.3192 3136.98 70.7667C3137.73 71.2141 3138.36 71.8894 3138.86 72.7926C3139.35 73.6958 3139.6 74.9055 3139.6 76.4219V89H3136.67V86.4148H3136.52C3136.32 86.8291 3135.99 87.2724 3135.52 87.7447C3135.06 88.217 3134.44 88.6188 3133.67 88.9503C3132.9 89.2817 3131.96 89.4474 3130.85 89.4474ZM3131.3 86.8125C3132.46 86.8125 3133.44 86.5846 3134.23 86.1289C3135.04 85.6732 3135.64 85.0849 3136.05 84.364C3136.46 83.6431 3136.67 82.8849 3136.67 82.0895V79.4048C3136.54 79.554 3136.27 79.6907 3135.85 79.815C3135.43 79.931 3134.95 80.0346 3134.41 80.1257C3133.87 80.2086 3133.34 80.2831 3132.83 80.3494C3132.32 80.4074 3131.91 80.4571 3131.6 80.4986C3130.83 80.598 3130.12 80.7596 3129.46 80.9833C3128.8 81.1987 3128.27 81.526 3127.87 81.9652C3127.47 82.3961 3127.27 82.9844 3127.27 83.7301C3127.27 84.7493 3127.65 85.5199 3128.4 86.0419C3129.17 86.5556 3130.13 86.8125 3131.3 86.8125ZM3158.48 74.1847L3155.84 74.9304C3155.68 74.4912 3155.43 74.0645 3155.11 73.6502C3154.79 73.2276 3154.36 72.8796 3153.82 72.6062C3153.27 72.3327 3152.57 72.196 3151.72 72.196C3150.55 72.196 3149.57 72.4653 3148.8 73.0039C3148.03 73.5342 3147.64 74.2095 3147.64 75.0298C3147.64 75.759 3147.9 76.3349 3148.44 76.7575C3148.97 77.18 3149.79 77.5322 3150.92 77.8139L3153.75 78.5099C3155.46 78.9242 3156.73 79.5581 3157.57 80.4116C3158.41 81.2567 3158.83 82.3464 3158.83 83.6804C3158.83 84.7741 3158.51 85.7519 3157.88 86.6136C3157.26 87.4754 3156.39 88.1548 3155.27 88.652C3154.15 89.1491 3152.85 89.3977 3151.37 89.3977C3149.42 89.3977 3147.81 88.9751 3146.53 88.13C3145.26 87.2848 3144.45 86.0502 3144.11 84.4261L3146.89 83.7301C3147.16 84.7576 3147.66 85.5282 3148.4 86.0419C3149.14 86.5556 3150.12 86.8125 3151.32 86.8125C3152.69 86.8125 3153.77 86.5225 3154.58 85.9425C3155.39 85.3542 3155.79 84.6499 3155.79 83.8295C3155.79 83.1667 3155.56 82.6115 3155.1 82.1641C3154.63 81.7083 3153.92 81.3686 3152.96 81.1449L3149.78 80.3991C3148.03 79.9848 3146.74 79.3427 3145.92 78.4727C3145.11 77.5943 3144.71 76.4964 3144.71 75.179C3144.71 74.1018 3145.01 73.1489 3145.61 72.3203C3146.23 71.4917 3147.06 70.8413 3148.11 70.369C3149.17 69.8967 3150.37 69.6605 3151.72 69.6605C3153.61 69.6605 3155.09 70.0748 3156.17 70.9034C3157.25 71.732 3158.02 72.8258 3158.48 74.1847Z" fill="white"/>
<path fill-rule="evenodd" clip-rule="evenodd" d="M957.224 94.9938C956.692 94.9938 956.428 94.5523 956.428 93.6691V81.2649L948.126 93.6691C947.498 94.6168 946.887 95.0583 946.301 94.9938H944.596C944.299 94.9938 943.982 94.8898 943.636 94.6763C943.293 94.4629 942.954 94.1305 942.62 93.6691L933.315 81.2649V93.6691C933.315 94.5523 933.048 94.9938 932.519 94.9938H929.779C929.248 94.9938 928.983 94.5523 928.983 93.6691V62.8322C928.983 61.9837 929.248 61.5568 929.779 61.5568H932.311C932.939 61.5568 933.567 61.9837 934.195 62.8322L948.007 83.6215L962.764 62.8322C963.353 61.9837 964.05 61.5568 964.853 61.5568H966.972C967.503 61.5568 967.768 61.9837 967.768 62.8322V93.6691C967.768 94.5523 967.503 94.9938 966.972 94.9938H957.224Z" fill="white"/>
<path fill-rule="evenodd" clip-rule="evenodd" d="M971.086 94.9938C970.576 94.9938 970.319 94.5571 970.319 93.684V90.5731C970.319 89.6997 970.572 89.263 971.086 89.263H987.605L973.734 78.4067C972.989 77.8163 972.381 77.2062 971.909 76.5662C971.439 75.9261 971.071 75.256 970.804 74.5517C970.539 73.8471 970.361 73.1027 970.275 72.3188C970.186 71.5348 970.141 70.6964 970.141 69.8132C970.141 68.7316 970.26 67.6944 970.495 66.6922C970.73 65.6948 971.088 64.8118 971.57 64.0377C972.055 63.2686 972.651 62.6633 973.365 62.2218C974.08 61.7801 974.913 61.5568 975.855 61.5568H997.527C998.058 61.5568 998.323 61.9837 998.323 62.8322V65.9677C998.323 66.851 998.058 67.2927 997.527 67.2927H981.566L995.408 78.129C996.174 78.7195 996.787 79.3298 997.247 79.9648C997.707 80.6049 998.073 81.2747 998.337 81.9742C998.602 82.6788 998.78 83.428 998.869 84.2268C998.958 85.0257 999 85.8693 999 86.7526C999 87.8291 998.884 88.8711 998.646 89.8634C998.412 90.8608 998.053 91.7438 997.571 92.5129C997.089 93.282 996.496 93.8873 995.789 94.3291C995.079 94.7706 994.253 94.9888 993.314 94.9888H971.081L971.086 94.9938Z" fill="white"/>
<path fill-rule="evenodd" clip-rule="evenodd" d="M770.84 94.9946C770.334 94.9946 770.074 94.5581 770.074 93.6847V90.5738C770.074 89.7007 770.329 89.264 770.84 89.264H787.363L773.491 78.4077C772.744 77.8173 772.136 77.207 771.666 76.5669C771.194 75.9268 770.826 75.257 770.561 74.5525C770.296 73.8479 770.118 73.1037 770.03 72.3198C769.943 71.5358 769.898 70.6972 769.898 69.8139C769.898 68.7324 770.015 67.6954 770.252 66.693C770.487 65.6958 770.845 64.8126 771.327 64.0385C771.81 63.2696 772.408 62.6641 773.127 62.2226C773.842 61.7811 774.67 61.5578 775.614 61.5578H797.286C797.818 61.5578 798.082 61.9844 798.082 62.8329V65.9687C798.082 66.852 797.818 67.2935 797.286 67.2935H781.325L795.167 78.1298C795.934 78.7202 796.547 79.3306 797.007 79.9706C797.469 80.6057 797.832 81.2755 798.097 81.98C798.364 82.6846 798.54 83.4338 798.629 84.2326C798.718 85.0317 798.762 85.8751 798.762 86.7584C798.762 87.8349 798.643 88.8769 798.408 89.8693C798.171 90.8666 797.815 91.7496 797.331 92.5187C796.849 93.2878 796.255 93.8931 795.548 94.3349C794.841 94.7764 794.015 94.9946 793.076 94.9946H770.84Z" fill="white"/>
<path fill-rule="evenodd" clip-rule="evenodd" d="M811.338 94.9938C810.832 94.9938 810.572 94.5523 810.572 93.6691V81.9992L800.001 63.224C799.823 62.9312 799.734 62.6336 799.734 62.3408C799.734 62.0779 799.793 61.8844 799.912 61.7503C800.03 61.6213 800.166 61.5568 800.325 61.5568H812.191C812.723 61.5568 813.163 61.8844 813.516 62.5393L821.354 76.8539L829.512 62.4897C829.73 62.1324 829.925 61.8844 830.103 61.7554C830.278 61.6264 830.516 61.5618 830.81 61.5618H832.516C832.711 61.5618 832.854 61.6362 832.943 61.7801C833.032 61.929 833.077 62.0976 833.077 62.2962C833.077 62.5592 833.028 62.7724 832.929 62.9362L822.266 81.7114V93.6741C822.266 94.5571 822.001 94.9989 821.47 94.9989H811.338V94.9938Z" fill="white"/>
<path fill-rule="evenodd" clip-rule="evenodd" d="M834.882 94.9938C834.372 94.9938 834.115 94.5574 834.115 93.684V90.5731C834.115 89.6997 834.37 89.2632 834.882 89.2632H851.404L837.532 78.407C836.783 77.8166 836.175 77.2062 835.707 76.5662C835.235 75.9261 834.867 75.2563 834.602 74.5517C834.335 73.8471 834.16 73.1027 834.071 72.3188C833.982 71.5348 833.937 70.6964 833.937 69.8132C833.937 68.7316 834.056 67.6947 834.291 66.6922C834.528 65.6951 834.884 64.8118 835.369 64.0427C835.851 63.2736 836.447 62.6684 837.166 62.2269C837.881 61.7851 838.711 61.5618 839.653 61.5618H861.332C861.861 61.5618 862.128 61.9885 862.128 62.8369V65.9728C862.128 66.856 861.861 67.2975 861.332 67.2975H845.369L859.211 78.1341C859.978 78.7245 860.591 79.3348 861.051 79.9749C861.513 80.6099 861.876 81.2848 862.143 81.9843C862.408 82.6889 862.583 83.4381 862.672 84.2369C862.761 85.0357 862.806 85.8792 862.806 86.7624C862.806 87.8392 862.687 88.8812 862.452 89.8733C862.215 90.8707 861.859 91.7539 861.374 92.523C860.892 93.2921 860.299 93.8974 859.592 94.3389C858.885 94.7806 858.059 94.9989 857.12 94.9989H834.884L834.882 94.9938Z" fill="white"/>
<path fill-rule="evenodd" clip-rule="evenodd" d="M873.674 94.9938C873.301 94.9938 873.113 94.7804 873.113 94.3588V67.2975H864.514C864.143 67.2975 863.955 67.1189 863.955 66.7567V62.1969C863.955 61.7702 864.143 61.5568 864.514 61.5568H893.405C893.778 61.5568 893.966 61.7702 893.966 62.1969V66.7567C893.966 67.1141 893.778 67.2975 893.405 67.2975H884.777V94.3588C884.777 94.7804 884.601 94.9938 884.248 94.9938H873.674Z" fill="white"/>
<path fill-rule="evenodd" clip-rule="evenodd" d="M911.316 79.6473C910.785 79.6473 910.52 79.2207 910.52 78.3722V75.1867C910.52 74.3383 910.785 73.9116 911.316 73.9116H925.394C925.903 73.9116 926.16 74.2042 926.16 74.7949V78.7641C926.16 79.3545 925.905 79.6473 925.394 79.6473H911.316ZM905.01 94.9938C903.618 94.9938 902.33 94.577 901.151 93.7434C899.971 92.9101 898.953 91.7489 898.09 90.2603C897.227 88.7718 896.552 87.0106 896.073 84.9662C895.59 82.922 895.351 80.6944 895.351 78.2729C895.351 75.8515 895.583 73.6735 896.043 71.6291C896.505 69.5849 897.158 67.8136 898.001 66.3102C898.844 64.8068 899.863 63.6358 901.049 62.8024C902.236 61.9688 903.559 61.552 905.01 61.552H925.596C926.128 61.552 926.392 61.9786 926.392 62.8271V65.9629C926.392 66.8462 926.128 67.2877 925.596 67.2877H911.902C911.252 67.2877 910.708 67.4018 910.266 67.6301C909.823 67.8582 909.465 68.2702 909.19 68.8606C908.916 69.4511 908.718 70.235 908.599 71.2173C908.481 72.1998 908.424 73.4452 908.424 74.9486V80.3073C908.424 81.9793 908.493 83.3884 908.629 84.5345C908.765 85.6808 908.98 86.5986 909.262 87.2883C909.546 87.978 909.907 88.4742 910.34 88.7867C910.77 89.0994 911.289 89.2531 911.897 89.2531H925.68C926.212 89.2531 926.476 89.6898 926.476 90.568V93.6789C926.476 94.5523 926.212 94.989 925.68 94.989H905.007L905.01 94.9938Z" fill="white"/>
<path fill-rule="evenodd" clip-rule="evenodd" d="M737.49 57.0617C737.49 54.2434 737.381 51.9162 737.171 50.0804C736.958 48.2446 736.605 46.771 736.11 45.6695C735.616 44.568 734.978 43.8039 734.202 43.3723C733.423 42.9456 732.466 42.7272 731.334 42.7272H720.614V83.8002H731.334C732.397 83.8002 733.316 83.5076 734.095 82.927C734.872 82.3464 735.517 81.3939 736.033 80.079C736.545 78.7641 736.919 77.0475 737.148 74.9337C737.378 72.82 737.497 70.2003 737.497 67.0793V57.0617H737.49ZM680.499 94.6068V89.4716H699.565V34.3717C699.565 32.784 700.052 32 700.974 32H743.651C746.303 32 748.704 32.7939 750.845 34.3816C752.986 35.9694 754.818 38.1575 756.338 40.936C757.861 43.7146 759.038 47.0191 759.871 50.8397C760.702 54.6602 761.115 58.7982 761.115 63.2638C761.115 67.7292 760.679 71.9567 759.814 75.7772C758.949 79.5977 757.735 82.8973 756.177 85.6808C754.622 88.4593 752.771 90.6325 750.63 92.1906C748.489 93.7485 746.16 94.6118 743.648 94.6118C743.648 94.6118 680.502 94.6317 680.502 94.6118L680.499 94.6068ZM660.4 94.6068C659.725 94.6068 659.507 94.1257 659.507 93.3317V42.7272H644.01C643.335 42.7272 643 42.3898 643 41.72V33.1908C643 32.3969 643.335 32 644.01 32H696.079C696.754 32 697.09 32.3969 697.09 33.1908V41.715C697.09 42.3898 696.754 42.7223 696.079 42.7223H680.529L680.502 94.602H660.4V94.6068Z" fill="white"/>
</svg>
