<svg width="456" height="43" viewBox="0 0 456 43" fill="none" xmlns="http://www.w3.org/2000/svg">
<path d="M409.871 7.33596H406.8C405.662 7.33596 404.638 7.7874 403.785 8.69029L382.455 30.811L362.491 8.69029C361.581 7.7874 360.671 7.33596 359.761 7.33596H356.12C355.381 7.33596 354.983 7.7874 354.983 8.69029V41.5328C354.983 42.4921 355.381 42.9436 356.12 42.9436H360.102C360.841 42.9436 361.239 42.4921 361.239 41.5328V28.3281L374.663 41.5328C375.118 42.0407 375.63 42.3793 376.142 42.605C376.654 42.8307 377.109 42.9436 377.507 42.9436H379.953C380.806 43 381.659 42.5486 382.569 41.5328L394.571 28.3281V41.5328C394.571 42.4921 394.969 42.9436 395.708 42.9436H409.814C410.554 42.9436 410.952 42.4921 410.952 41.5328V8.69029C410.952 7.7874 410.554 7.33596 409.814 7.33596H409.871Z" fill="white"/>
<path d="M455.943 31.4882C455.829 30.6417 455.545 29.8517 455.204 29.0617C454.806 28.3281 454.294 27.5945 453.611 26.9173C452.929 26.2402 452.075 25.563 450.938 24.9423L430.916 13.374H454.009C454.749 13.374 455.147 12.9226 455.147 11.9633V8.63386C455.147 7.73097 454.749 7.27953 454.009 7.27953H422.669C421.304 7.27953 420.109 7.50525 419.085 8.01312C418.062 8.46457 417.208 9.14173 416.469 9.93176C415.786 10.7782 415.275 11.6811 414.933 12.7533C414.592 13.8255 414.421 14.8976 414.421 16.0827C414.421 17.2677 414.478 17.8885 414.592 18.7349C414.706 19.5814 414.99 20.3714 415.331 21.105C415.73 21.8386 416.241 22.5722 416.924 23.2493C417.607 23.9265 418.46 24.6037 419.54 25.2244L439.562 36.7926H415.673C414.933 36.7926 414.592 37.2441 414.592 38.2034V41.5328C414.592 42.4921 414.933 42.9436 415.673 42.9436H447.809C449.175 42.9436 450.369 42.7178 451.393 42.2664C452.417 41.815 453.27 41.1378 453.952 40.3478C454.635 39.5577 455.147 38.5984 455.488 37.5262C455.829 36.4541 456 35.3819 456 34.1969C456 33.0118 455.943 32.3346 455.829 31.4882H455.943Z" fill="white"/>
<path d="M165.746 29.0617C165.348 28.3281 164.836 27.5945 164.153 26.9173C163.471 26.2402 162.617 25.563 161.48 24.9423L141.458 13.374H164.551C165.291 13.374 165.689 12.9226 165.689 11.9633V8.63386C165.689 7.73097 165.291 7.27953 164.551 7.27953H133.211C131.846 7.27953 130.651 7.50525 129.628 8.01312C128.604 8.46457 127.751 9.14173 127.011 9.93176C126.329 10.7782 125.817 11.6811 125.475 12.7533C125.134 13.8255 124.963 14.8976 124.963 16.0827C124.963 17.2677 125.02 17.8885 125.134 18.7349C125.248 19.5814 125.532 20.3714 125.874 21.105C126.272 21.8386 126.784 22.5722 127.466 23.2493C128.149 23.9265 129.002 24.6037 130.083 25.2244L150.104 36.7926H126.215C125.475 36.7926 125.134 37.2441 125.134 38.2034V41.5328C125.134 42.4921 125.475 42.9436 126.215 42.9436H158.352C159.717 42.9436 160.911 42.7178 161.935 42.2664C162.959 41.815 163.812 41.1378 164.494 40.3478C165.177 39.5577 165.689 38.5984 166.03 37.5262C166.371 36.4541 166.542 35.3819 166.542 34.1969C166.542 33.0118 166.485 32.3346 166.371 31.4882C166.258 30.6417 165.973 29.8517 165.632 29.0617H165.746Z" fill="white"/>
<path d="M213.069 7.33596C212.671 7.33596 212.33 7.39239 212.045 7.56168C211.818 7.67454 211.533 7.95669 211.192 8.35171L199.418 23.6444L188.099 8.40814C187.587 7.73097 186.962 7.33596 186.165 7.33596H168.988C168.76 7.33596 168.59 7.39239 168.419 7.56168C168.248 7.67454 168.192 7.90026 168.192 8.18241C168.192 8.46457 168.305 8.80315 168.59 9.14173L183.89 29.1181V41.5328C183.89 42.4921 184.232 42.9436 184.971 42.9436H199.589C200.328 42.9436 200.726 42.4921 200.726 41.5328V28.7795L216.141 8.80315C216.311 8.63386 216.368 8.40814 216.368 8.12598C216.368 7.84383 216.311 7.73097 216.198 7.56168C216.084 7.39239 215.856 7.33596 215.572 7.33596H213.069Z" fill="white"/>
<path d="M258.345 29.0617C257.947 28.3281 257.435 27.5945 256.752 26.9173C256.07 26.2402 255.217 25.563 254.079 24.9423L234.058 13.4304H257.151C257.89 13.4304 258.288 12.979 258.288 12.0197V8.69029C258.288 7.7874 257.89 7.33596 257.151 7.33596H225.81C224.445 7.33596 223.251 7.56168 222.227 8.06955C221.203 8.521 220.35 9.19816 219.61 9.98819C218.928 10.8346 218.416 11.7375 218.075 12.8097C217.733 13.8819 217.563 14.9541 217.563 16.1391C217.563 17.3241 217.62 17.9449 217.733 18.7913C217.847 19.6378 218.131 20.4278 218.473 21.1614C218.871 21.895 219.383 22.6286 220.065 23.3058C220.748 23.9829 221.601 24.6601 222.682 25.2808L242.703 36.8491H218.814C218.075 36.8491 217.733 37.3005 217.733 38.2598V41.5892C217.733 42.5486 218.075 43 218.814 43H250.951C252.316 43 253.51 42.7743 254.534 42.3228C255.558 41.8714 256.411 41.1942 257.094 40.4042C257.776 39.6142 258.288 38.6549 258.629 37.5827C258.971 36.5105 259.141 35.4383 259.141 34.2533C259.141 33.0682 259.084 32.3911 258.971 31.5446C258.857 30.6982 258.573 29.9081 258.231 29.1181L258.345 29.0617Z" fill="white"/>
<path d="M303.507 7.33596H261.758C261.246 7.33596 260.961 7.56168 260.961 8.01312V12.8661C260.961 13.2612 261.246 13.4304 261.758 13.4304H274.214V42.2664C274.214 42.7178 274.499 42.9436 275.011 42.9436H290.311C290.823 42.9436 291.051 42.7178 291.051 42.2664V13.4304H303.507C304.019 13.4304 304.303 13.2612 304.303 12.8661V8.01312C304.303 7.56168 304.019 7.33596 303.507 7.33596Z" fill="white"/>
<path d="M329.387 20.4843C328.648 20.4843 328.249 20.9357 328.249 21.8386V25.2244C328.249 26.1273 328.648 26.5787 329.387 26.5787H349.75C350.489 26.5787 350.83 26.2402 350.83 25.6194V21.3871C350.83 20.7664 350.489 20.4278 349.75 20.4278H329.387V20.4843Z" fill="white"/>
<path d="M350.148 36.8491H330.24C329.387 36.8491 328.591 36.6798 327.965 36.3412C327.339 36.0026 326.828 35.4948 326.429 34.7612C326.031 34.0276 325.69 33.0682 325.519 31.8268C325.349 30.5853 325.235 29.1181 325.235 27.3123V21.6129C325.235 20.0328 325.349 18.6785 325.462 17.6627C325.633 16.5906 325.917 15.8005 326.316 15.1234C326.714 14.5026 327.226 14.0512 327.851 13.8255C328.477 13.5997 329.273 13.4869 330.24 13.4869H350.034C350.774 13.4869 351.172 13.0354 351.172 12.0761V8.74672C351.172 7.84383 350.774 7.39239 350.034 7.39239H320.286C318.182 7.39239 316.305 7.84383 314.542 8.74672C312.835 9.64961 311.356 10.8911 310.162 12.4711C308.967 14.0512 308 15.9698 307.318 18.1142C306.635 20.315 306.294 22.6286 306.294 25.168C306.294 27.7073 306.635 30.1339 307.318 32.2782C308 34.479 308.967 36.3412 310.219 37.9213C311.47 39.5013 312.949 40.7428 314.655 41.6457C316.362 42.5486 318.239 43 320.23 43H350.091C350.83 43 351.229 42.5486 351.229 41.5892V38.2598C351.229 37.3005 350.83 36.8491 350.091 36.8491H350.148Z" fill="white"/>
<path d="M105.34 6.15092C103.918 4.23228 102.212 2.76509 100.221 1.63648C98.2303 0.564304 96.012 0 93.5093 0H53.8645C53.0114 0 52.5563 0.507874 52.5563 1.63648V39.3884H34.81V42.8871H93.5093C95.8413 42.8871 98.0027 42.3228 99.9935 41.2507C101.984 40.1785 103.691 38.7113 105.17 36.7926C106.591 34.874 107.729 32.6168 108.525 30.021C109.322 27.4252 109.72 24.5472 109.72 21.4436C109.72 18.3399 109.322 15.5748 108.582 12.9226C107.786 10.3268 106.705 8.06955 105.283 6.15092H105.34ZM87.8214 24.0958C87.8214 26.2402 87.7076 28.0459 87.4801 29.4567C87.2526 30.9239 86.9113 32.0525 86.4563 32.9554C86.0012 33.8583 85.3756 34.5354 84.6362 34.9304C83.8967 35.3255 83.0435 35.5512 82.0766 35.5512H72.1227V7.39239H82.0766C83.1004 7.39239 84.0105 7.56168 84.7499 7.84383C85.4893 8.12598 86.0581 8.63386 86.5132 9.42389C86.9682 10.1575 87.3095 11.1732 87.4801 12.4711C87.6507 13.7126 87.7645 15.3491 87.7645 17.2677V24.1522L87.8214 24.0958Z" fill="white"/>
<path d="M34.8669 39.4449V7.39239H49.3711C49.9968 7.39239 50.2812 7.16667 50.2812 6.71522V0.846457C50.2812 0.282152 49.9968 0.0564304 49.3711 0.0564304H0.910066C0.284396 0.0564304 0 0.338583 0 0.846457V6.65879C0 7.11024 0.284396 7.33596 0.910066 7.33596H15.3005V41.9843C15.3005 42.5486 15.528 42.8307 16.1537 42.8307H34.81V39.332L34.8669 39.4449Z" fill="white"/>
</svg>
